<?xml version="1.0" encoding="UTF-8"?>
<svg width="386px" height="376px" viewBox="0 0 386 376" version="1.1" xmlns="http://www.w3.org/2000/svg" xmlns:xlink="http://www.w3.org/1999/xlink">
    <title>login-graphic</title>
    <defs>
        <path d="M36.1242179,18.2168849 C36.1242179,28.0790078 28.1220763,36.0741542 18.2513246,36.0741542 C8.38057298,36.0741542 0.378851852,28.0790078 0.378851852,18.2168849 C0.378851852,8.35476201 8.38057298,0.360035754 18.2513246,0.360035754 C28.1220763,0.360035754 36.1242179,8.35476201 36.1242179,18.2168849" id="path-1"></path>
        <path d="M40.7112266,20.5606883 C40.7112266,31.7768313 31.610793,40.8697296 20.3848366,40.8697296 C9.15845969,40.8697296 0.0580261438,31.7768313 0.0580261438,20.5606883 C0.0580261438,9.34412514 9.15845969,0.251646927 20.3848366,0.251646927 C31.610793,0.251646927 40.7112266,9.34412514 40.7112266,20.5606883" id="path-3"></path>
        <path d="M28.8129237,24.6051039 C28.2053312,35.2217475 21.2741503,41.7162547 13.3338192,39.111562 C5.39096514,36.5043486 -0.556294118,25.7847777 0.0504575163,15.1710749 C0.658050109,4.55443128 7.5858671,-1.93923575 15.5295621,0.66461676 C23.4719956,3.27183017 29.4171525,13.9893006 28.8129237,24.6051039 L28.8129237,24.6051039 Z" id="path-5"></path>
        <path d="M8.50293246,0.138636872 L8.50293246,34.4058905 C-4.22539651,28.9801475 -0.471777778,8.72193966 8.50293246,0.138636872" id="path-7"></path>
    </defs>
    <g id="Page-1" stroke="none" stroke-width="1" fill="none" fill-rule="evenodd">
        <g id="Login-Copy" transform="translate(-351.000000, -217.000000)">
            <g id="login-graphic" transform="translate(544.000000, 405.000000) scale(-1, 1) translate(-544.000000, -405.000000) translate(351.000000, 217.000000)">
                <path d="M84.5705817,375.920179 C74.9470719,375.920179 65.0372157,373.139039 54.8834815,366.407169 C30.7584815,350.413935 8.70518301,311.225913 26.9262331,282.506655 C39.4102636,262.835343 43.9972723,251.262105 30.0125512,230.584626 C12.1951612,204.248661 -7.50976035,179.073886 3.45802179,145.947236 C12.4886558,118.658038 32.5648606,96.2202905 58.6791481,84.3092827 C81.3278453,73.9783151 104.600534,69.8355933 114.683207,44.0579575 C120.37902,29.5027665 126.290959,10.9758391 141.400882,3.55372514 C146.233451,1.18051397 151.622734,0.0949452514 157.111251,0.0949452514 C170.247865,0.0949452514 183.953808,6.31385922 191.953847,15.9823106 C202.729891,29.0057743 201.306989,47.3776804 209.346974,61.7820514 C219.067194,79.1885408 232.925771,93.0308022 253.287061,96.0169564 C257.094922,96.5752849 260.906987,96.793743 264.720314,96.793743 C271.574126,96.793743 278.432144,96.0879553 285.28049,95.3825877 C292.128416,94.6768 298.966671,93.9710123 305.780118,93.9710123 C313.138085,93.9710123 320.466198,94.7940112 327.748479,97.3285453 C348.684985,104.612022 365.144647,121.810977 374.811466,141.319285 C395.292593,182.646096 387.610436,243.856375 346.711675,270.449028 C310.746819,293.835808 266.452268,281.43537 228.045268,296.295982 C226.74893,296.797175 225.460161,297.306351 224.184427,297.819727 C223.83627,288.446615 223.396449,279.117613 222.829222,269.994887 C235.215702,269.25213 247.086673,267.964907 258.247035,266.205479 L258.247035,210.141149 C245.291647,212.183732 231.379248,213.589846 216.813845,214.24648 C216.769275,213.990212 216.723863,213.734784 216.678451,213.480197 C216.643972,213.286945 216.609072,213.094114 216.574593,212.901703 C216.226015,209.753806 215.157157,198.908621 216.003582,191.04497 C216.216765,189.065403 216.657847,187.123227 217.32683,185.247848 C217.731331,184.114807 218.181664,182.873797 218.682876,181.511794 C219.934222,178.124854 220.813865,174.433332 221.422719,170.659048 C221.464346,170.409082 221.501769,170.154914 221.539192,169.900746 L229.76629,179.716237 L235.120253,185.886418 C237.664153,188.815017 240.741641,191.235701 244.189991,193.010673 L250.506852,196.264438 L256.511717,185.903222 L249.35642,179.995191 C247.725802,178.649573 246.341584,177.032983 245.269782,175.212639 C240.350595,166.865859 237.269743,156.091674 231.981375,146.922315 L231.981375,108.70223 C222.666917,107.927124 213.01902,107.462901 203.128505,107.342749 L203.128505,97.4058458 L189.389765,105.007768 L189.389765,107.397363 C170.157882,107.786387 151.896046,109.476916 135.27534,112.223187 L135.27534,168.287517 C140.869397,167.362851 146.648464,166.558337 152.588575,165.882798 C151.220756,168.624027 148.90812,172.88396 146.599688,176.979209 C144.28537,181.087061 141.975257,185.02813 140.624257,187.111044 L135.044917,183.340961 L128.74866,191.960393 C130.032804,193.202244 131.316948,194.443674 132.601512,195.680903 L135.303512,198.018404 C137.248229,199.701372 139.645802,200.527312 142.033704,200.526892 C144.894224,200.526892 147.740869,199.340916 149.772625,197.02232 L161.000264,184.228237 L160.998582,184.232438 L169.742028,174.268228 C170.284447,176.779656 170.963941,179.216724 171.810366,181.511794 C172.24388,182.687687 172.637449,183.769895 172.996538,184.771021 C173.446451,186.026735 173.776527,187.36227 173.966163,188.682682 C175.156961,196.963924 174.792826,206.345859 173.611699,213.762092 C173.611699,213.82973 173.613381,213.896527 173.617586,213.963325 C169.124344,213.700335 164.697118,213.365506 160.347259,212.962619 L160.347259,269.02695 C161.046937,269.091647 161.747876,269.154664 162.451758,269.216 C159.543723,287.717301 158.130072,301.266324 158.130072,301.266324 L149.710815,342.42215 C149.710815,342.421309 149.710394,342.421309 149.710394,342.42173 C149.041832,342.975857 148.369065,343.537966 147.700503,344.103857 C128.785242,360.092889 107.503102,375.920179 84.5705817,375.920179 M307.196712,124.255607 L307.196712,180.319517 C314.170782,182.980505 320.396819,185.89482 325.752885,189.021712 C329.060795,190.953385 332.040312,192.96488 334.656534,195.047794 L334.656534,182.996049 C343.093031,176.280563 347.789784,168.831562 347.789784,160.989756 C347.789784,146.777797 332.366183,133.858101 307.196712,124.255607 M172.179967,325.434512 C173.643656,318.143053 174.622111,310.729341 174.337026,304.615035 L186.504856,270.578002 C190.284545,270.680509 194.102497,270.732603 197.954928,270.732603 C198.213102,270.732603 198.472538,270.732183 198.729871,270.731763 L204.499688,306.594181 C193.197625,312.158981 182.527542,318.383356 172.179547,325.434512" id="Fill-3" fill="#304FFE"></path>
                <path d="M86.0649651,171.503893 C85.8257124,171.503893 85.5986536,171.362735 85.5006819,171.128313 C85.3703333,170.81701 85.5170806,170.459075 85.8286558,170.32884 C95.8545643,166.138646 107.551037,162.537868 120.593044,159.625654 C120.92354,159.552974 121.249412,159.759669 121.322996,160.089037 C121.397,160.418404 121.189283,160.744831 120.859627,160.818351 C107.887841,163.715021 96.2603268,167.293953 86.3004336,171.45642 C86.2234858,171.488769 86.1435948,171.503893 86.0649651,171.503893" id="Fill-4" fill="#FFFFFF"></path>
                <path d="M108.665307,152.685408 C108.397041,152.685408 108.150641,152.507701 108.075795,152.236308 C107.986233,151.911142 108.177551,151.574632 108.503002,151.485149 C115.796636,149.477435 123.638575,147.702883 131.811431,146.210646 C132.141508,146.14973 132.462333,146.369448 132.522882,146.701756 C132.583431,147.033645 132.363521,147.352089 132.031342,147.412585 C123.893806,148.898521 116.086767,150.665091 108.828033,152.663142 C108.773791,152.678266 108.719129,152.685408 108.665307,152.685408" id="Fill-5" fill="#FFFFFF"></path>
                <path d="M268.295229,215.640411 C268.005939,215.640411 267.749026,215.434556 267.694364,215.140478 C267.633394,214.80817 267.852885,214.489725 268.185063,214.428389 C271.396264,213.836872 274.589383,213.194521 277.676542,212.519821 C278.006198,212.446302 278.33249,212.657198 278.404813,212.986565 C278.477135,213.315933 278.267736,213.64194 277.93766,213.714199 C274.837887,214.391839 271.630891,215.036291 268.407076,215.630328 L268.295229,215.640411" id="Fill-6" fill="#FFFFFF"></path>
                <path d="M289.551719,218.458941 C289.281771,218.458941 289.03495,218.279133 288.961366,218.00606 C288.874327,217.680474 289.067747,217.345225 289.393619,217.257421 C301.751085,213.94526 312.565813,209.987388 321.538,205.495133 C321.840745,205.343473 322.207824,205.465725 322.358776,205.767365 C322.510148,206.069006 322.388209,206.436183 322.085885,206.587423 C313.040534,211.117068 302.147597,215.104349 289.71066,218.438355 C289.65768,218.452219 289.604279,218.458941 289.551719,218.458941" id="Fill-7" fill="#FFFFFF"></path>
                <path d="M275.045603,246.99335 C274.7622,246.99335 274.50781,246.795057 274.447682,246.50686 C274.378723,246.176653 274.591065,245.852746 274.921983,245.783848 C286.002033,243.477015 296.236078,240.662266 305.339876,237.417323 C305.656917,237.303893 306.007597,237.469417 306.121547,237.787441 C306.234656,238.105466 306.068987,238.454999 305.750684,238.568429 C296.594327,241.832277 286.306039,244.66215 275.170906,246.980746 C275.129279,246.989149 275.08681,246.99335 275.045603,246.99335" id="Fill-8" fill="#FFFFFF"></path>
                <path d="M132.02083,223.325935 L131.910244,223.315853 C122.117281,221.531218 112.842349,219.351258 104.344462,216.836469 C104.020693,216.740684 103.836102,216.400813 103.931551,216.077327 C104.02742,215.753421 104.368009,215.568992 104.691778,215.664778 C113.148037,218.166963 122.37966,220.33642 132.129734,222.113493 C132.461913,222.173989 132.682244,222.492434 132.621695,222.824742 C132.567874,223.11924 132.31054,223.325935 132.02083,223.325935" id="Fill-9" fill="#FFFFFF"></path>
                <path d="M155.816595,251.870427 L155.748898,251.867066 C140.648224,250.204684 126.420466,247.702078 113.461294,244.427307 C113.133741,244.344545 112.935695,244.012657 113.018109,243.68497 C113.100943,243.357703 113.432281,243.15941 113.761096,243.242592 C126.666026,246.503499 140.837861,248.996442 155.883031,250.652103 C156.218573,250.689073 156.460769,250.991133 156.423767,251.326382 C156.389288,251.638945 156.124386,251.870427 155.816595,251.870427" id="Fill-10" fill="#FFFFFF"></path>
                <path d="M297.742656,132.978387 C297.682527,132.978387 297.621978,132.969564 297.56185,132.951079 C280.782623,127.761019 260.664791,123.916997 239.382231,121.834083 C239.046268,121.801314 238.800288,121.502615 238.833085,121.166525 C238.866303,120.830856 239.161479,120.58425 239.501647,120.618279 C260.864939,122.708335 281.066867,126.569582 297.923041,131.783589 C298.245969,131.883155 298.426355,132.225546 298.326702,132.548192 C298.245129,132.810342 298.003773,132.978387 297.742656,132.978387" id="Fill-11" fill="#FFFFFF"></path>
                <path d="M296.849137,166.698655 C296.789429,166.698655 296.729301,166.689832 296.670013,166.671768 C289.756913,164.567008 282.273222,162.678606 274.426658,161.059495 C274.096161,160.991017 273.882978,160.667951 273.951516,160.337323 C274.020054,160.007115 274.342562,159.792858 274.67432,159.862597 C282.557046,161.489269 290.077318,163.386914 297.027,165.502597 C297.349928,165.601323 297.531996,165.942874 297.433603,166.26552 C297.352871,166.52893 297.111096,166.698655 296.849137,166.698655" id="Fill-12" fill="#FFFFFF"></path>
                <path d="M95.4828606,135.959499 C95.229732,135.959499 94.9930022,135.801117 94.905122,135.54905 C94.7941155,135.230606 94.9627277,134.882333 95.2818715,134.771003 C102.382505,132.300326 110.188283,130.073314 118.483078,128.151723 C118.810632,128.075683 119.140288,128.280277 119.216815,128.609225 C119.293342,128.937752 119.088148,129.265859 118.759333,129.34232 C110.507007,131.253828 102.743697,133.468657 95.6838497,135.92505 C95.6174139,135.948577 95.5497168,135.959499 95.4828606,135.959499" id="Fill-13" fill="#FFFFFF"></path>
                <path d="M197.954928,163.375151 C209.65939,163.375151 221.049333,163.857019 231.981375,164.766561 L231.981375,108.70223 C221.049333,107.792688 209.65939,107.31124 197.954928,107.31124 C175.575338,107.31124 154.346179,109.071928 135.27534,112.223187 L135.27534,168.287517 C154.346179,165.136259 175.575338,163.375151 197.954928,163.375151" id="Fill-14" fill="#9CABFF"></path>
                <g id="Group-34" transform="translate(140.860566, 119.731844)">
                    <mask id="mask-2" fill="white">
                        <use xlink:href="#path-1"></use>
                    </mask>
                    <g id="Clip-16"></g>
                    <path d="M36.1242179,18.2168849 C36.1242179,28.0790078 28.1220763,36.0741542 18.2513246,36.0741542 C8.38057298,36.0741542 0.378851852,28.0790078 0.378851852,18.2168849 C0.378851852,8.35476201 8.38057298,0.360035754 18.2513246,0.360035754 C28.1220763,0.360035754 36.1242179,8.35476201 36.1242179,18.2168849" id="Fill-15" fill="#304FFE" mask="url(#mask-2)"></path>
                    <path d="M21.9944314,26.0620514 L21.9944314,26.0637318 L25.1728344,33.9626726 L22.1458039,33.9626726 L23.5716492,35.4948201 L18.2513246,42.2338324 L30.9266732,42.2338324 L30.9266732,37.5726927 C30.9266732,32.031419 27.1301656,27.376581 21.9944314,26.0620514" id="Fill-17" fill="#223266" mask="url(#mask-2)"></path>
                    <path d="M12.931,35.4948201 L14.3568453,33.9626726 L11.3298148,33.9626726 L14.5086383,26.0624715 C9.37290414,27.376581 5.57597603,32.031419 5.57597603,37.5726927 L5.57597603,42.2338324 L18.2210501,42.2338324 L18.2210501,42.1951821 L12.931,35.4948201" id="Fill-18" fill="#223266" mask="url(#mask-2)"></path>
                    <polyline id="Fill-19" fill="#393839" mask="url(#mask-2)" points="14.5090588 26.0624715 14.5090588 27.7160313 14.5090588 26.0624715"></polyline>
                    <path d="M21.9948519,24.8542302 L21.9948519,26.0637318 L21.9935904,26.0624715 L21.9935904,27.7160313 L21.9805556,27.7698056 L21.960793,27.7160313 C21.960793,27.7160313 20.5563922,29.0696313 18.2517451,29.8405363 L18.2345054,29.8459978 L18.1260218,29.8090279 C15.876037,29.0326615 14.5082179,27.7160313 14.5082179,27.7160313 L14.5082179,24.8542302 L14.5973595,24.9525363 C15.1738366,25.5940469 15.4450458,26.0036559 15.8932767,26.2536223 L15.9626558,26.2893318 L16.0463312,26.3284022 L16.1186536,26.3582302 L16.1682702,26.3767151 L16.2326035,26.398981 L16.2704466,26.4107441 C16.3911242,26.4489743 16.5248366,26.4788022 16.6766296,26.5023285 C16.7317124,26.5115709 16.7893181,26.5195531 16.8494466,26.5283754 L16.9558279,26.5405587 C17.004183,26.5443397 17.0554815,26.549381 17.1063595,26.5535821 L17.1862505,26.5598838 L17.2678235,26.5653453 L17.3527603,26.5703866 C17.389342,26.5733274 17.4263442,26.5745877 17.4641874,26.5771084 C17.5045534,26.5783687 17.5466013,26.5796291 17.5886492,26.5808894 C17.7879564,26.5888715 18.0078671,26.5913922 18.2517451,26.5913922 C20.8196122,26.5913922 20.752756,26.2355575 21.9057102,24.9525363 L21.9948519,24.8542302" id="Fill-20" fill="#F9B885" mask="url(#mask-2)"></path>
                    <path d="M19.8848867,32.0822525 L19.126342,32.6649475 L19.635963,36.7438123 L18.2513246,42.1162011 L18.2513246,42.1724961 L18.2513246,42.1716559 L18.5927538,40.9100603 L21.30022,30.4060067 L20.0888192,32.3452425 C20.0888192,32.3452425 20.0139739,32.2498771 19.8848867,32.0822525" id="Fill-21" fill="#D7E2EE" mask="url(#mask-2)"></path>
                    <polyline id="Fill-22" fill="#CFD1D2" mask="url(#mask-2)" points="18.2361861 33.5265966 18.2378667 32.6649475 18.2345054 32.6649475 18.2361861 33.5265966"></polyline>
                    <path d="M17.3460327,32.6649475 L16.5845447,32.0822525 C16.4554575,32.2498771 16.3801917,32.3452425 16.3801917,32.3452425 L15.225976,30.4975911 L18.2210501,42.1162011 L16.8359913,36.7438123 L17.3460327,32.6649475" id="Fill-23" fill="#D7E2EE" mask="url(#mask-2)"></path>
                    <path d="M24.9491394,15.0668872 C24.8822832,15.0584849 24.8145861,15.0530235 24.7456275,15.0530235 L24.5261373,15.0530235 L24.5261373,16.5578637 C24.2074139,16.4351911 23.8134248,16.1932067 23.7482505,15.7361251 C23.6355621,14.9488358 23.7482505,13.8989765 23.7482505,13.8989765 C23.7482505,13.8989765 23.5228736,13.6742168 22.8101612,12.6243575 C22.368658,11.9744447 22.3013813,11.2106816 22.3139956,10.7220916 C21.3754858,10.8304804 19.7852331,10.8405631 18.2517451,10.8149363 L18.2513246,10.8149363 C16.1152898,10.7788067 14.0911024,10.674619 14.0911024,10.674619 L14.0620893,10.6741989 C14.0843747,11.1552268 14.0368606,11.9731844 13.5688671,12.6617475 C12.8557342,13.7116067 12.6307778,13.9363665 12.6307778,13.9363665 C12.6307778,13.9363665 12.7434662,14.9862257 12.6307778,15.7735151 C12.5672854,16.2188335 12.1913769,16.4599777 11.8772789,16.5860112 L11.8772789,15.0450413 L11.6577887,15.0450413 C11.5749542,15.0450413 11.4942222,15.0534436 11.4143312,15.0656268 C10.6356035,15.1832581 10.0385229,15.8524961 10.0385229,16.6633117 L10.0385229,17.3800223 C10.0385229,17.672 10.117573,17.9585162 10.2672636,18.2093229 L10.4867538,18.5765006 C10.7785664,19.0646704 11.305427,19.3642101 11.874756,19.3650503 C11.925634,21.8453899 13.0571438,23.2363799 14.5090588,24.8542302 L14.5973595,24.9525363 C15.7507342,26.2359777 15.683878,26.5909721 18.2517451,26.5909721 C20.8191917,26.5909721 20.7523355,26.2359777 21.9057102,24.9525363 L21.9944314,24.8546503 C23.445085,23.2376402 24.5761743,21.8474905 24.6283137,19.3696715 C25.1589586,19.3360626 25.6420893,19.0440849 25.9170828,18.5840626 L26.1361525,18.2168849 C26.2858431,17.9664983 26.3653137,17.6799821 26.3653137,17.3880045 L26.3653137,16.6708737 C26.3653137,15.8461944 25.7472092,15.1672939 24.9491394,15.0668872" id="Fill-24" fill="#F9B885" mask="url(#mask-2)"></path>
                    <path d="M16.5845447,32.0822525 L18.2345054,29.8459978 C15.9201874,29.0763531 14.5086383,27.7160313 14.5086383,27.7160313 L15.225976,30.4975911 L16.3801917,32.3452425 C16.3801917,32.3452425 16.4554575,32.2498771 16.5845447,32.0822525" id="Fill-25" fill="#FFFFFF" mask="url(#mask-2)"></path>
                    <path d="M18.2517451,29.8401162 L18.2345054,29.8459978 L19.8848867,32.0822525 C20.0139739,32.2498771 20.0888192,32.3452425 20.0888192,32.3452425 L21.30022,30.4060067 L21.9801351,27.7698056 L21.9603725,27.7160313 C21.9603725,27.7160313 20.5555512,29.0692112 18.2517451,29.8401162" id="Fill-26" fill="#FFFFFF" mask="url(#mask-2)"></path>
                    <polyline id="Fill-27" fill="#415A94" mask="url(#mask-2)" points="14.3568453 33.9626726 12.931 35.4948201 18.2210501 42.1951821 18.2210501 42.1162011 14.5086383 27.7160313 14.5086383 26.0620514 11.3298148 33.9626726 14.3568453 33.9626726"></polyline>
                    <polyline id="Fill-28" fill="#415A94" mask="url(#mask-2)" points="22.1458039 33.9626726 25.1728344 33.9626726 21.9944314 26.0637318 21.9940109 26.0620514 21.9940109 27.7160313 18.2513246 42.2338324 23.5716492 35.4948201 22.1458039 33.9626726"></polyline>
                    <polyline id="Fill-29" fill="#E78DB3" mask="url(#mask-2)" points="19.8848867 32.0822525 18.2345054 29.8459978 16.5845447 32.0822525 17.3460327 32.6649475 16.8359913 36.7438123 18.2210501 42.1162011 18.2210501 42.1951821 18.2206296 42.2338324 18.2273573 42.2077855 18.2281983 42.2048447 18.2361874 42.1745966 18.2513246 42.1162011 19.635963 36.7438123 19.126342 32.6649475 19.8848867 32.0822525"></polyline>
                    <path d="M25.6063486,7.52504134 C25.6063486,7.52504134 25.4015752,7.73971844 24.327671,7.78761117 C22.7710566,7.8565095 22.0818911,5.95046257 18.2513246,5.65218324 C17.9262941,5.62655642 17.5789782,5.61311285 17.2060131,5.61311285 C12.4007756,5.61311285 11.8772789,10.6363888 11.8772789,10.6372291 C11.8772789,10.6372291 11.4673115,11.0493587 11.4298889,12.7365274 C11.4134902,13.4788648 11.4113878,14.336733 11.4143312,15.0656268 C11.4942222,15.0534436 11.5749542,15.0450413 11.6577887,15.0450413 L11.8772789,15.0450413 L11.8772789,16.5860112 C12.1913769,16.4599777 12.5672854,16.2188335 12.6307778,15.7735151 C12.7434662,14.9862257 12.6307778,13.9363665 12.6307778,13.9363665 C12.6307778,13.9363665 12.8561547,13.7116067 13.5688671,12.6617475 C14.0368606,11.9727642 14.0843747,11.1552268 14.0620893,10.6741989 L14.0911024,10.674619 C14.0911024,10.674619 16.1152898,10.7788067 18.2513246,10.8149363 L18.2517451,10.8149363 C19.7848126,10.8405631 21.3754858,10.8304804 22.3139956,10.7220916 C22.3013813,11.2106816 22.368658,11.9744447 22.8101612,12.6243575 C23.5228736,13.6737966 23.7482505,13.8989765 23.7482505,13.8989765 C23.7482505,13.8989765 23.6355621,14.9488358 23.7482505,15.7361251 C23.8134248,16.1932067 24.2074139,16.4351911 24.5265577,16.5578637 L24.5265577,15.0530235 L24.7456275,15.0530235 C24.8145861,15.0530235 24.8822832,15.0584849 24.9491394,15.0668872 C24.9491394,14.3304313 24.9491394,13.4549184 24.9491394,12.6991374 C24.9491394,11.3337743 24.3747647,10.4292737 23.9870828,9.97345251 C25.039963,9.03324246 25.6063486,7.52504134 25.6063486,7.52504134" id="Fill-30" fill="#1D1E5C" mask="url(#mask-2)"></path>
                    <path d="M16.6040477,26.4905441 C16.4817833,26.4691241 16.3717034,26.4426641 16.2704466,26.4107441 C16.2712869,26.4111641 16.2717071,26.4111641 16.2721272,26.4115841 C16.3725437,26.4422441 16.4826237,26.4682841 16.6040477,26.4905441" id="Fill-31" fill="#ECBAB2" mask="url(#mask-2)"></path>
                    <path d="M17.6748475,27.7710659 C16.6968126,27.3698592 16.1699521,26.6405453 15.9626558,26.2893318 C16.0101699,26.3128581 16.059366,26.3347039 16.111085,26.3552894 L16.1186536,26.3582302 L16.1287451,26.3624313 C16.1594401,26.3737743 16.1905556,26.3851173 16.2229325,26.3956201 L16.2326035,26.398981 L16.2540479,26.4057028 C16.2586732,26.4073832 16.2632985,26.4086436 16.2679237,26.4099039 L16.2704466,26.4107441 C16.3717821,26.4426726 16.4819477,26.4691397 16.6043072,26.4905654 C16.6652767,26.5014883 16.7291895,26.5115709 16.7964662,26.5208134 C16.8137059,26.5233341 16.8317865,26.5258547 16.8494466,26.5283754 L16.9558279,26.5405587 C16.9667603,26.5413989 16.9772723,26.5422391 16.9882048,26.5430793 C17.1038366,26.5548425 17.2282985,26.5640849 17.3632723,26.5712268 C17.3964902,26.5733274 17.4297081,26.5745877 17.4641874,26.5771084 C17.5007691,26.5783687 17.5381917,26.5796291 17.5756144,26.5804693 C17.584024,26.5808894 17.5920131,26.5813095 17.6004227,26.5813095 C17.7879564,26.5884514 17.9944118,26.5913922 18.2214706,26.5913922 C18.0288911,26.9812559 17.847244,27.3740603 17.6748475,27.7710659" id="Fill-32" fill="#F69E65" mask="url(#mask-2)"></path>
                    <path d="M17.6004227,26.5812319 C17.5920131,26.5812319 17.584024,26.5808119 17.5756144,26.5803919 C17.5798192,26.5808119 17.5844444,26.5808119 17.5886492,26.5808119 C17.5924336,26.5812319 17.5962179,26.5812319 17.6004227,26.5812319 M17.3632723,26.5711519 C17.2282985,26.5640119 17.1038366,26.5547719 16.9882048,26.5430119 C17.0268889,26.5463719 17.0668344,26.5505719 17.1063595,26.5535119 L17.1862505,26.5598119 L17.2678235,26.5652719 L17.3527603,26.5703119 C17.3561242,26.5707319 17.3599085,26.5711519 17.3632723,26.5711519 M16.7964662,26.5207519 C16.7291895,26.5115119 16.6652767,26.5014319 16.6043072,26.4905119 C16.4827887,26.4682519 16.3726231,26.4422119 16.2721285,26.4115519 C16.3923856,26.4476719 16.5256776,26.4774919 16.6766296,26.5022719 C16.7153137,26.5089919 16.7552593,26.5144519 16.7964662,26.5207519 M16.2679237,26.4098719 C16.2632985,26.4086119 16.2586732,26.4073519 16.2540479,26.4056719 L16.2679237,26.4098719 M16.2229325,26.3955919 C16.1905556,26.3850919 16.1594401,26.3737518 16.1287451,26.3624118 L16.1682702,26.3766918 L16.2229325,26.3955919 M16.111085,26.3552718 C16.059366,26.3346918 16.0101699,26.3128518 15.9626558,26.2893318 L16.0463312,26.3283918 L16.111085,26.3552718" id="Fill-33" fill="#F69E65" mask="url(#mask-2)"></path>
                </g>
                <path d="M222.413368,126.75023 L222.363752,126.74897 C216.583843,126.408679 210.702179,126.189801 204.803275,126.094016 L203.731473,124.411048 C210.022264,124.497171 216.299599,124.722771 222.461723,125.085327 C222.921307,125.112215 223.272407,125.506699 223.245076,125.965882 C223.219007,126.408679 222.851508,126.75023 222.413368,126.75023" id="Fill-35" fill="#A0AEFF"></path>
                <path d="M221.816708,132.480554 L221.768353,132.479294 C220.069617,132.381828 218.36205,132.294865 216.647756,132.218404 L212.991268,130.403942 C215.96742,130.51023 218.928856,130.647607 221.863802,130.815651 C222.323806,130.842118 222.674906,131.235763 222.648837,131.695365 C222.623187,132.138583 222.255688,132.480554 221.816708,132.480554" id="Fill-36" fill="#A0AEFF"></path>
                <path d="M224.184427,297.820147 C218.407041,300.142105 212.813405,302.598498 207.370301,305.205712 C206.407824,305.657752 205.453756,306.122396 204.499688,306.594601 L194.302645,243.180836 L188.933124,263.785216 L174.337026,304.615035 C174.622111,310.729341 173.643656,318.143473 172.179967,325.435352 C167.475224,328.641225 162.831031,332.018083 158.231828,335.57853 C155.378035,337.786637 152.54022,340.067423 149.710815,342.42215 L158.130072,301.266324 C158.130072,301.266324 161.624255,267.781318 168.922094,234.222793 C170.483754,227.016617 172.490281,219.908326 174.031338,213.260058 C174.414815,211.601877 174.377813,209.972684 174.75246,208.375839 L195.937889,207.06425 L215.202148,205.874494 C215.720179,208.335088 216.213401,210.872983 216.678451,213.480197 C220.959351,237.461435 223.05502,267.402378 224.184427,297.820147" id="Fill-37" fill="#032E58"></path>
                <polyline id="Fill-38" fill="#F6D4AF" points="203.128505 123.464116 194.782412 127.111946 189.389765 123.464116 189.389765 105.007768 203.128505 97.4058458 203.128505 123.464116"></polyline>
                <path d="M256.511717,185.903222 L250.506852,196.264438 L244.189991,193.010673 C240.741641,191.235701 237.664153,188.815017 235.120253,185.886418 L229.76629,179.716237 L221.539192,169.900746 C221.501769,170.154914 221.464346,170.409082 221.422719,170.659048 C220.813865,174.433332 219.934222,178.124854 218.682876,181.511794 C218.181664,182.873797 217.731331,184.114807 217.32683,185.247848 C216.657847,187.123227 216.216765,189.065403 216.003582,191.04497 C215.003261,200.336581 216.67719,213.791499 216.67719,213.791499 C216.67719,215.103508 215.906031,216.299146 214.709346,216.836889 C200.073303,223.440206 190.574255,223.365006 175.617386,216.824286 C174.399678,216.291164 173.611699,215.090905 173.611699,213.762092 C174.792826,206.345859 175.156961,196.963924 173.966163,188.682682 C173.776527,187.36227 173.446451,186.026735 172.996538,184.771021 C172.637449,183.769895 172.24388,182.687687 171.810366,181.511794 C170.963521,179.216304 170.284026,176.779236 169.742028,174.266968 L149.772625,197.02232 C146.044656,201.275951 139.577684,201.717908 135.303512,198.018404 L132.601512,195.680903 C131.316948,194.443674 130.032804,193.202244 128.74866,191.960393 L135.044917,183.340961 L140.624257,187.111044 C141.975257,185.02813 144.28537,181.087061 146.599688,176.979209 C149.793649,171.313162 152.99602,165.330351 153.692333,163.493202 C156.131954,157.048268 156.54024,149.998793 160.347259,144.0832 C161.982083,141.549926 164.042011,139.175035 166.180989,137.054731 C166.226821,137.008939 166.318486,136.921135 166.447993,136.804764 C168.10342,135.292362 170.004828,134.008921 172.022708,133.038463 L177.885451,130.213631 C179.77046,129.30577 181.738723,128.589059 183.756603,128.076523 C186.266865,127.439213 188.852392,127.114047 191.458523,127.114047 L199.034719,127.114047 C203.738621,127.114047 208.375246,128.172308 212.607791,130.213631 L219.954826,133.859361 C221.334839,134.542463 222.606789,135.400751 223.753436,136.429604 C234.986961,146.516067 238.264597,163.326418 245.269782,175.212639 C246.341584,177.032983 247.725802,178.649573 249.35642,179.995191 L256.511717,185.903222" id="Fill-39" fill="#FFFFFF"></path>
                <path d="M295.058736,222.580657 C295.058736,222.580657 290.383007,219.066842 289.532377,217.234315 C289.018551,216.128161 287.702871,213.445327 287.599434,212.009806 C287.594388,211.943428 287.622139,211.878311 287.673017,211.835039 C287.723895,211.791768 287.792854,211.775803 287.857608,211.791347 C289.466362,212.181631 290.510832,212.44042 292.075436,213.103356 C292.359259,213.223508 292.66705,213.288626 292.975261,213.292407 C293.341919,213.296608 293.80781,213.247035 294.147558,213.019754 C294.147558,213.019754 295.087749,212.154744 294.043699,211.615741 L289.716547,209.540389 L288.308782,208.469524 C287.64022,207.960769 286.814819,207.70198 285.975122,207.736849 L283.097782,207.857421 L256.482283,186.294766 L251.061885,195.460344 L275.802887,209.295884 L275.754532,209.35512 C277.513817,210.249537 279.211712,213.708737 279.641863,214.932523 C280.072434,216.156308 282.137828,218.609761 285.399906,221.91562 C286.540667,223.072188 287.562011,223.768733 288.480338,224.168679 C289.742196,225.010163 290.709719,224.834136 291.181497,224.645506 C291.952656,225.039991 292.392898,224.713984 292.613649,224.416545 C293.654336,224.949667 294.094577,224.16994 294.203061,223.922494 C295.879092,223.772514 295.058736,222.580657 295.058736,222.580657" id="Fill-40" fill="#F6D4AF"></path>
                <path d="M135.043656,183.341801 L110.372453,166.361305 C109.770327,166.291987 108.730902,163.578485 108.600133,162.987388 C108.432782,162.226565 108.243146,162.561815 108.28183,161.538002 C108.28183,161.538002 108.471887,157.865806 107.745719,155.517381 C107.678022,155.298083 107.642281,155.066181 107.641861,154.8368 L107.638497,150.986896 C107.638076,150.708782 107.606961,150.431928 107.54473,150.160956 L106.199196,144.298717 C106.171444,144.176465 106.056233,144.093703 105.931351,144.106726 C105.492791,144.150838 104.568577,144.42223 104.677902,145.930011 L104.960885,148.039392 L105.456209,150.641144 C105.456209,150.641144 104.755691,154.298217 104.757373,155.845488 C104.757373,155.845488 104.103948,159.851674 105.371693,162.224045 C105.338054,162.182034 104.21117,160.767937 104.313346,158.534203 L104.204442,155.21196 C104.204442,155.21196 104.150621,153.840715 102.989257,153.894489 C102.989257,153.894489 101.581492,153.910454 101.680305,155.986226 C101.680305,155.986226 101.697124,158.481269 101.780379,159.380308 C101.861952,160.260442 101.775333,161.425412 101.413721,162.386628 C101.413721,162.386628 100.472688,165.560572 102.765562,168.038391 C103.198235,168.505135 103.732664,168.851307 104.334791,169.058422 L107.481237,170.046525 C113.596688,176.15705 121.938157,185.386485 128.74824,191.961234 L135.043656,183.341801" id="Fill-41" fill="#F6D4AF"></path>
                <path d="M103.195292,154.167142 C103.115821,154.143196 103.031305,154.136054 102.948891,154.147397 C102.700388,154.181426 102.152503,154.342328 102.075135,155.096849 C102.075135,155.096849 101.845974,156.166874 102.889603,156.196702 C102.889603,156.196702 103.854183,156.318534 103.926089,155.408992 C103.926089,155.408992 103.934074,154.390641 103.195292,154.167142" id="Fill-42" fill="#F6D4AF"></path>
                <path d="M106.102486,145.595182 C106.102486,145.595182 106.190786,145.788434 106.504044,145.62585 L106.199196,144.298297 C106.187843,144.247884 106.160932,144.203772 106.125192,144.171003 L106.026379,144.146637 L105.952375,144.216375 C105.820765,144.617162 105.777876,145.28514 106.102486,145.595182" id="Fill-43" fill="#F6D4AF"></path>
                <polyline id="Fill-44" fill="#304FFE" points="190.665078 127.072876 194.782412 134.094623 198.899745 127.072876 190.665078 127.072876"></polyline>
                <polyline id="Fill-45" fill="#CFD6FB" points="189.389765 123.464116 186.404362 127.111946 191.001882 135.798177 194.782412 127.111946 189.389765 123.464116"></polyline>
                <polyline id="Fill-46" fill="#CFD6FB" points="194.782412 127.111946 198.308551 135.798177 205.451654 127.111946 203.128505 123.464116 194.782412 127.111946"></polyline>
                <path d="M160.998582,184.232438 L161.000264,184.228237 L169.742028,174.266968 C169.742028,174.267388 169.742028,174.267808 169.742028,174.268228 L160.998582,184.232438" id="Fill-47" fill="#D073AF"></path>
                <path d="M161.000264,184.228237 L165.024671,174.768161 C163.078693,167.963611 165.163429,158.381283 167.808664,153.873904 C167.821699,160.311276 168.290113,167.54728 169.74371,174.266547 L169.742028,174.268228 C169.742028,174.267808 169.742028,174.267388 169.742028,174.266968 L161.000264,184.228237" id="Fill-48" fill="#CFD6FB"></path>
                <path d="M194.772741,127.072876 L194.724386,127.072876 L189.389765,123.464116 L189.389765,114.401046 L190.807621,111.095187 C190.807621,111.095187 195.811745,114.428353 193.101336,120.260764 L194.772741,127.072876" id="Fill-49" fill="#EDB078"></path>
                <polyline id="Fill-50" fill="#BE4B4E" points="194.782367 127.111936 194.724386 127.072876 194.772703 127.072876 194.782367 127.111936"></polyline>
                <polyline id="Fill-51" fill="#A1AF9D" points="194.782412 127.111946 189.389765 123.464116 194.724386 127.072876 194.782412 127.111946"></polyline>
                <path d="M180.098434,103.944465 C179.566107,106.59495 178.41105,108.598463 177.518373,108.419495 C176.626115,108.240527 176.333882,105.947137 176.866209,103.296653 C177.398536,100.646168 178.553593,98.6426547 179.44627,98.8216223 C180.338527,99.0005899 180.63076,101.29398 180.098434,103.944465" id="Fill-52" fill="#FFFFFF"></path>
                <path d="M178.21805,121.067799 L178.115033,117.789247 C178.434597,115.77103 178.592697,113.85238 178.627597,112.171933 L178.05995,111.193913 L178.210061,108.869015 C176.960397,108.820282 175.219612,108.224983 176.697597,106.498744 C177.626015,105.414856 178.229824,103.208849 178.453939,102.276201 C178.421983,101.649815 178.343353,101.020487 178.213845,100.413426 C178.02505,98.4981363 178.5599,96.9869944 179.300784,95.857314 C179.34998,95.7682503 179.409688,95.6800268 179.468135,95.601886 C179.964721,94.8969385 180.530686,94.3541542 181.010453,93.9693318 L181.089083,93.9037944 C181.646218,93.4635173 182.06922,93.2509408 182.06922,93.2509408 L202.066375,97.3470302 L203.317301,105.262775 L198.869471,108.711053 L190.182368,107.137314 L190.182368,113.594851 L187.422342,119.728063 L186.786157,119.75705 L186.108765,119.781837 L181.110107,121.865591 C179.240235,122.712116 178.555695,121.853828 178.327375,121.367759 C178.238233,121.193832 178.21805,121.067799 178.21805,121.067799" id="Fill-53" fill="#F6D4AF"></path>
                <path d="M187.810865,96.7328268 C187.78059,96.1387888 187.494244,95.5871821 187.02541,95.2204246 C186.556575,94.8540872 185.951926,94.7091486 185.36746,94.8221587 C182.048617,95.4628291 177.116815,95.3489788 176.886392,89.1065385 C176.886392,89.1065385 177.141203,82.7586503 183.0872,84.3756603 C183.0872,84.3756603 185.669784,85.7968983 188.605991,83.0943196 C191.542198,80.3917408 195.616222,80.1867263 198.174839,81.8831374 C200.280179,83.2787486 200.817131,84.6651173 200.941172,85.1125363 C201.040405,85.4692112 201.19388,85.8158034 201.393187,86.1279464 C201.820815,86.7971844 202.606691,87.5764916 203.88663,87.3571933 C205.83429,87.0240447 210.4049,88.7897743 210.218627,94.759562 C210.183307,95.8938637 209.884767,97.011781 209.345292,98.0103866 L209.197283,98.2842994 C208.542597,99.4954816 207.734015,100.605837 206.785834,101.604863 C206.241734,102.177895 205.753978,103.231955 206.227438,105.097672 C207.652022,110.708684 202.873275,113.535196 202.873275,113.535196 L201.090022,112.241672 C199.235708,110.896894 198.648719,108.409412 199.699917,106.374811 C200.262098,105.286302 200.346614,104.006221 199.072983,102.75933 C198.534769,102.232089 197.796407,101.958177 197.04417,102.006909 C196.386961,102.049761 195.64061,102.311911 195.199527,103.161377 C194.832869,103.866744 194.370342,104.539763 193.840959,105.132961 L190.423303,108.96312 L189.984322,103.468058 C189.874157,102.088831 189.444847,100.776402 188.724146,99.595048 C188.288529,98.880438 187.870573,97.9040983 187.810865,96.7328268" id="Fill-54" fill="#032E58"></path>
                <path d="M178.05995,111.193913 C178.620449,112.365184 179.571573,112.189578 179.887773,112.139584 C182.80632,111.678302 184.862885,112.592045 186.091525,113.435209 C186.54312,113.744831 187.112869,113.827593 187.634264,113.659549 C188.155658,113.491504 188.570671,113.091137 188.755261,112.57608 C188.99073,111.920286 189.105521,111.215759 189.086599,110.499048 L190.631861,99.3912939 L194.472939,104.019665 C194.53517,106.079893 189.730773,108.198516 190.940072,110.688939 L190.948481,110.710364 C191.654887,112.16143 191.888673,113.312956 191.97319,114.025466 C192.024068,114.518257 192.000521,114.796371 191.998418,114.816956 C191.645216,118.211459 189.301464,120.221274 186.644455,121.405569 C185.400257,121.966838 184.098453,122.329815 182.888314,122.584402 C182.8059,122.975946 182.63939,123.373372 182.325712,123.7792 C180.62151,125.985627 177.719782,124.744617 177.719782,124.744617 C171.131292,121.630328 178.05995,111.193913 178.05995,111.193913" id="Fill-55" fill="#032E58"></path>
                <path d="M182.808423,103.682315 C182.276096,106.3328 181.121039,108.336313 180.228782,108.157345 C179.336105,107.978378 179.044292,105.684568 179.576619,103.034083 C180.108946,100.383598 181.264002,98.3800849 182.156259,98.5590525 C183.048937,98.7380201 183.340749,101.03183 182.808423,103.682315" id="Fill-56" fill="#FFFFFF"></path>
                <path d="M192.685061,105.575339 L192.615261,105.570717 L178.215948,103.654588 C177.930442,103.616778 177.729874,103.354628 177.767717,103.069372 C177.80556,102.784116 178.066257,102.582042 178.353865,102.621533 L192.753179,104.537663 C193.038684,104.575893 193.239253,104.838042 193.20141,105.122878 C193.16651,105.385028 192.941974,105.575339 192.685061,105.575339" id="Fill-57" fill="#FFFFFF"></path>
                <polyline id="Fill-58" fill="#304FFE" points="138.337691 183.656045 129.719967 194.765899 124.16039 188.933068 131.388009 179.489797 138.337691 183.656045"></polyline>
                <path d="M229.76629,179.716237 L221.539192,169.900746 C222.306566,164.822016 222.594595,159.618512 222.619403,154.814954 C224.587667,158.064518 226.180442,162.13078 226.042946,170.046525 L229.76629,179.716237" id="Fill-59" fill="#CFD6FB"></path>
                <polyline id="Fill-60" fill="#304FFE" points="254.687678 181.711768 246.692264 196.166552 254.196137 199.208161 260.652176 187.127848 254.687678 181.711768"></polyline>
                <path d="M204.499688,306.594181 L198.729871,270.731763 L198.730292,270.731763 L204.499688,306.594601 C204.499688,306.594181 204.499688,306.594181 204.499688,306.594181" id="Fill-61" fill="#6B558D"></path>
                <path d="M204.499688,306.594601 L204.499688,306.594601 L198.730292,270.731763 C200.949582,270.727982 203.156257,270.706556 205.351159,270.668326 L207.36988,305.205292 C206.407824,305.657332 205.453756,306.121555 204.499688,306.594181" id="Fill-62" fill="#011B3B"></path>
                <path d="M195.427427,131.927687 C195.545161,131.969278 195.662475,132.017591 195.780209,132.074726 C192.746871,142.296465 194.865667,156.687392 197.737961,166.813345 C201.784654,181.08034 201.925094,194.773461 195.336603,208.343911 C195.07044,208.900559 194.928739,209.197578 194.928739,209.197578 L184.185913,210.874244 C184.185913,210.874244 182.173499,201.912 182.115893,201.656572 C181.894721,200.67099 184.420961,198.846445 185.544061,196.804282 C189.827063,189.018771 192.198566,180.316156 190.676011,171.416509 C188.755261,158.564031 190.461566,144.960813 193.848107,132.481815 C193.999479,131.923066 194.080632,131.625626 194.081893,131.625626 C194.559558,131.716371 194.996856,131.776867 195.427427,131.927687" id="Fill-63" fill="#304FFE"></path>
                <path d="M149.710815,342.42215 L158.130072,301.266324 C158.130072,301.266324 159.543723,287.717301 162.451758,269.216 C165.042331,269.44118 167.660656,269.642834 170.302107,269.819701 C169.742869,271.392179 169.069261,272.884416 168.261941,274.266583 C159.504198,289.265412 161.383741,300.512644 162.007312,306.134579 C162.37439,309.425734 161.240778,321.699718 158.231828,335.57853 C155.378035,337.786637 152.54022,340.067423 149.710815,342.42215" id="Fill-64" fill="#054175"></path>
                <path d="M146.599688,176.979209 C149.793649,171.313162 152.99602,165.330351 153.692333,163.493202 C156.131954,157.048268 156.54024,149.998793 160.347259,144.0832 C161.982083,141.549926 164.042011,139.175035 166.180989,137.054731 C166.226821,137.008939 166.318486,136.921135 166.447993,136.804764 C168.10342,135.292362 170.004828,134.008921 172.022708,133.038463 L177.885451,130.213631 C179.77046,129.30577 181.738723,128.589059 183.756603,128.076523 C183.101917,130.859343 179.999621,141.654114 170.763373,144.91208 C160.130292,148.661578 158.333584,160.859942 158.333584,160.859942 C158.333584,160.859942 156.994778,171.508934 146.599688,176.979209" id="Fill-65" fill="#FFFFFF"></path>
                <path d="M70.1573922,189.021712 C72.9304532,187.402601 75.9394031,185.841466 79.1619564,184.341667 L79.1619564,128.277336 C59.7013333,137.334105 48.1209129,148.676702 48.1209129,160.989756 C48.1209129,171.264009 56.183183,180.862722 70.1573922,189.021712" id="Fill-66" fill="#2943D6"></path>
                <path d="M307.196712,124.255607 L307.196712,180.319517 C314.170782,182.980505 320.396819,185.89482 325.752885,189.021712 C329.060795,190.953385 332.040312,192.96488 334.656534,195.047794 L334.656534,182.996049 C343.093031,176.280563 347.789784,168.831562 347.789784,160.989756 C347.789784,146.777797 332.366183,133.858101 307.196712,124.255607" id="Fill-67" fill="#2943D6"></path>
                <path d="M334.656534,182.864974 C334.555198,183.164094 334.656534,195.047374 334.656534,195.047374 L334.655272,195.046534 L334.655272,239.058279 C343.095133,232.344894 347.787682,224.894212 347.787682,217.052407 L347.787682,161.089743 C347.748157,168.844165 342.954272,176.212085 334.656534,182.864974" id="Fill-68" fill="#5972FF"></path>
                <path d="M95.4879063,207.88977 C95.4879063,208.782087 94.7642614,209.505099 93.8711634,209.505099 C92.9780654,209.505099 92.2544205,208.782087 92.2544205,207.88977 C92.2544205,206.997873 92.9780654,206.27444 93.8711634,206.27444 C94.7642614,206.27444 95.4879063,206.997873 95.4879063,207.88977" id="Fill-69" fill="#5556C5"></path>
                <path d="M153.569133,227.374132 C153.569133,229.02139 152.23285,230.356505 150.58415,230.356505 C148.935871,230.356505 147.599168,229.02139 147.599168,227.374132 C147.599168,225.726874 148.935871,224.391759 150.58415,224.391759 C152.23285,224.391759 153.569133,225.726874 153.569133,227.374132" id="Fill-70" fill="#304FFE"></path>
                <path d="M103.422771,235.923406 C103.422771,237.900031 101.819063,239.502337 99.8407081,239.502337 C97.8627734,239.502337 96.2590654,237.900031 96.2590654,235.923406 C96.2590654,233.94678 97.8627734,232.344474 99.8407081,232.344474 C101.819063,232.344474 103.422771,233.94678 103.422771,235.923406" id="Fill-71" fill="#5556C5"></path>
                <path d="M140.435462,244.472679 C140.435462,245.241064 139.811891,245.864509 139.042414,245.864509 C138.273357,245.864509 137.649786,245.241064 137.649786,244.472679 C137.649786,243.703875 138.273357,243.080849 139.042414,243.080849 C139.811891,243.080849 140.435462,243.703875 140.435462,244.472679" id="Fill-72" fill="#FFFFFF"></path>
                <path d="M120.934052,259.582838 C120.934052,260.351642 120.310481,260.974668 119.541425,260.974668 C118.771948,260.974668 118.148377,260.351642 118.148377,259.582838 C118.148377,258.814454 118.771948,258.191008 119.541425,258.191008 C120.310481,258.191008 120.934052,258.814454 120.934052,259.582838" id="Fill-73" fill="#783477"></path>
                <path d="M277.343102,227.175419 C277.343102,229.371343 275.561111,231.151777 273.362845,231.151777 C271.165,231.151777 269.383009,229.371343 269.383009,227.175419 C269.383009,224.979075 271.165,223.199061 273.362845,223.199061 C275.561111,223.199061 277.343102,224.979075 277.343102,227.175419" id="Fill-74" fill="#304FFE"></path>
                <path d="M286.098743,253.021953 C286.098743,254.119705 285.207747,255.009922 284.108614,255.009922 C283.009902,255.009922 282.118906,254.119705 282.118906,253.021953 C282.118906,251.923781 283.009902,251.033564 284.108614,251.033564 C285.207747,251.033564 286.098743,251.923781 286.098743,253.021953" id="Fill-75" fill="#FFFFFF"></path>
                <path d="M320.325338,228.765962 C320.325338,230.522869 318.899913,231.947048 317.141468,231.947048 C315.383024,231.947048 313.957599,230.522869 313.957599,228.765962 C313.957599,227.009055 315.383024,225.584876 317.141468,225.584876 C318.899913,225.584876 320.325338,227.009055 320.325338,228.765962" id="Fill-76" fill="#5556C5"></path>
                <path d="M326.693076,210.474297 C326.693076,211.352751 325.980364,212.06484 325.101142,212.06484 C324.221919,212.06484 323.509207,211.352751 323.509207,210.474297 C323.509207,209.596264 324.221919,208.883754 325.101142,208.883754 C325.980364,208.883754 326.693076,209.596264 326.693076,210.474297" id="Fill-77" fill="#304FFE"></path>
                <path d="M317.141468,200.135768 C317.141468,201.892675 315.716044,203.316854 313.957599,203.316854 C312.199155,203.316854 310.77373,201.892675 310.77373,200.135768 C310.77373,198.37886 312.199155,196.954682 313.957599,196.954682 C315.716044,196.954682 317.141468,198.37886 317.141468,200.135768" id="Fill-78" fill="#FFFFFF"></path>
                <path d="M127.699985,119.812925 C127.699985,120.588451 127.070527,121.217359 126.294322,121.217359 C125.517697,121.217359 124.88824,120.588451 124.88824,119.812925 C124.88824,119.036979 125.517697,118.408072 126.294322,118.408072 C127.070527,118.408072 127.699985,119.036979 127.699985,119.812925" id="Fill-79" fill="#5556C5"></path>
                <path d="M100.656858,135.592322 C100.656858,137.805891 98.8609913,139.600188 96.6459063,139.600188 C94.4304009,139.600188 92.6345338,137.805891 92.6345338,135.592322 C92.6345338,133.379173 94.4304009,131.584876 96.6459063,131.584876 C98.8609913,131.584876 100.656858,133.379173 100.656858,135.592322" id="Fill-80" fill="#5556C5"></path>
                <path d="M122.924181,141.285256 C122.924181,142.726239 121.755248,143.89415 120.313425,143.89415 C118.871181,143.89415 117.702248,142.726239 117.702248,141.285256 C117.702248,139.844693 118.871181,138.676782 120.313425,138.676782 C121.755248,138.676782 122.924181,139.844693 122.924181,141.285256" id="Fill-81" fill="#304FFE"></path>
                <path d="M90.6006754,159.431142 C90.6006754,161.204434 89.1617952,162.642056 87.3873725,162.642056 C85.6125294,162.642056 84.1740697,161.204434 84.1740697,159.431142 C84.1740697,157.65827 85.6125294,156.220648 87.3873725,156.220648 C89.1617952,156.220648 90.6006754,157.65827 90.6006754,159.431142" id="Fill-82" fill="#FFFFFF"></path>
                <path d="M88.994024,175.467647 C88.994024,176.354083 88.2745839,177.072894 87.3873725,177.072894 C86.4997407,177.072894 85.7807211,176.354083 85.7807211,175.467647 C85.7807211,174.580791 86.4997407,173.8624 87.3873725,173.8624 C88.2745839,173.8624 88.994024,174.580791 88.994024,175.467647" id="Fill-83" fill="#FFFFFF"></path>
                <path d="M248.295972,116.854078 C248.295972,117.585913 247.701834,118.179531 246.969359,118.179531 C246.236464,118.179531 245.642747,117.585913 245.642747,116.854078 C245.642747,116.121823 246.236464,115.528206 246.969359,115.528206 C247.701834,115.528206 248.295972,116.121823 248.295972,116.854078" id="Fill-84" fill="#FFFFFF"></path>
                <path d="M266.60322,135.410413 C266.60322,136.142248 266.009083,136.735866 265.276608,136.735866 C264.543712,136.735866 263.949996,136.142248 263.949996,135.410413 C263.949996,134.678159 264.543712,134.084961 265.276608,134.084961 C266.009083,134.084961 266.60322,134.678159 266.60322,135.410413" id="Fill-85" fill="#5556C5"></path>
                <path d="M283.053211,168.811817 C283.053211,169.544072 282.459495,170.137269 281.726599,170.137269 C280.994124,170.137269 280.399987,169.544072 280.399987,168.811817 C280.399987,168.079982 280.994124,167.486364 281.726599,167.486364 C282.459495,167.486364 283.053211,168.079982 283.053211,168.811817" id="Fill-86" fill="#304FFE"></path>
                <path d="M260.500804,153.966749 C260.500804,155.870275 258.956383,157.412925 257.051612,157.412925 C255.14642,157.412925 253.60242,155.870275 253.60242,153.966749 C253.60242,152.063642 255.14642,150.520572 257.051612,150.520572 C258.956383,150.520572 260.500804,152.063642 260.500804,153.966749" id="Fill-87" fill="#FFFFFF"></path>
                <path d="M302.42217,152.111115 C302.42217,154.16084 300.758754,155.822382 298.707656,155.822382 C296.656137,155.822382 294.992721,154.16084 294.992721,152.111115 C294.992721,150.06139 296.656137,148.399848 298.707656,148.399848 C300.758754,148.399848 302.42217,150.06139 302.42217,152.111115" id="Fill-88" fill="#304FFE"></path>
                <path d="M294.462076,123.21625 C294.462076,125.412174 292.680505,127.192608 290.48224,127.192608 C288.284394,127.192608 286.502403,125.412174 286.502403,123.21625 C286.502403,121.019906 288.284394,119.239893 290.48224,119.239893 C292.680505,119.239893 294.462076,121.019906 294.462076,123.21625" id="Fill-89" fill="#5556C5"></path>
                <path d="M48.8235338,169.896545 C48.56578,169.896545 48.31139,169.777654 48.148244,169.553314 C47.8774553,169.181095 47.9598693,168.659736 48.3324139,168.389184 C52.3559804,165.468147 57.1708889,162.642056 62.6438475,159.990731 C63.0580196,159.789497 63.5571285,159.962583 63.7581176,160.376813 C63.9595272,160.790623 63.7862898,161.289296 63.3716972,161.490109 C57.9870392,164.099003 53.2570675,166.873841 49.3129717,169.737323 C49.164963,169.844872 48.9934074,169.896545 48.8235338,169.896545" id="Fill-90" fill="#304FFE"></path>
                <path d="M50.5016667,176.27048 C50.2355033,176.27048 49.9739651,176.143607 49.8125011,175.907504 C49.5526449,175.527303 49.6501961,175.008885 50.0303094,174.749256 C53.6825926,172.254632 57.9264902,169.831428 62.6438475,167.5456 C63.0580196,167.343946 63.5571285,167.517873 63.7581176,167.931683 C63.9595272,168.345913 63.7862898,168.844165 63.3716972,169.044979 C58.7283442,171.294677 54.5563486,173.677131 50.971342,176.125122 C50.8275381,176.223008 50.6635512,176.27048 50.5016667,176.27048" id="Fill-91" fill="#304FFE"></path>
                <path d="M50.5016667,183.82535 C50.2355033,183.82535 49.9739651,183.698476 49.8125011,183.462373 C49.5526449,183.082592 49.6501961,182.564174 50.0303094,182.304545 C53.6825926,179.809922 57.9264902,177.386297 62.6438475,175.100889 C63.0580196,174.899236 63.5571285,175.072322 63.7581176,175.486972 C63.9595272,175.900782 63.7862898,176.399455 63.3716972,176.600268 C58.7283442,178.849966 54.5563486,181.232 50.971342,183.679991 C50.8275381,183.778297 50.6635512,183.82535 50.5016667,183.82535" id="Fill-92" fill="#304FFE"></path>
                <path d="M344.205619,163.193242 C343.95207,163.193242 343.701885,163.078552 343.537898,162.860514 C343.455484,162.750865 335.093412,151.817457 318.236817,144.885613 C317.810451,144.710427 317.607359,144.223517 317.782699,143.797944 C317.91515,143.476139 318.225885,143.281627 318.554279,143.281627 C318.659819,143.281627 318.767462,143.301792 318.87132,143.344644 C336.177407,150.461336 344.524763,161.398105 344.872078,161.860228 C345.147913,162.228246 345.073488,162.750025 344.705148,163.026458 C344.555458,163.139048 344.379697,163.193242 344.205619,163.193242" id="Fill-93" fill="#9BAAFB"></path>
                <path d="M342.628821,169.295365 C342.402183,169.295365 342.176386,169.203781 342.011978,169.023553 C339.198551,165.939933 331.250231,158.189712 318.236817,152.838328 C317.810451,152.663142 317.607359,152.176232 317.782699,151.750659 C317.91515,151.428854 318.226305,151.234762 318.554279,151.234762 C318.66024,151.234762 318.767462,151.254927 318.87132,151.296939 C331.718224,156.579844 339.656033,163.967508 343.244824,167.901015 C343.555137,168.240885 343.530749,168.768125 343.190161,169.078168 C343.029959,169.223526 342.828969,169.295365 342.628821,169.295365" id="Fill-94" fill="#9BAAFB"></path>
                <path d="M339.37305,173.990114 C339.1708,173.990114 338.968129,173.917015 338.807505,173.768715 C334.773427,170.048626 327.929706,164.777484 318.236817,160.791044 C317.810451,160.615857 317.607359,160.128947 317.782699,159.703374 C317.91515,159.381989 318.225464,159.187057 318.553858,159.187057 C318.659399,159.187057 318.767041,159.207222 318.87132,159.250074 C328.79295,163.330199 335.804442,168.731575 339.939015,172.544509 C340.277501,172.856653 340.298946,173.383473 339.986109,173.721663 C339.821702,173.89979 339.598007,173.990114 339.37305,173.990114" id="Fill-95" fill="#9BAAFB"></path>
                <path d="M329.044397,174.149336 C328.895126,174.149336 328.743754,174.109006 328.607098,174.024563 C325.329041,172.002565 321.839904,170.225913 318.236817,168.743759 C317.810451,168.568572 317.607359,168.081663 317.782699,167.656089 C317.91515,167.334704 318.225885,167.139772 318.553858,167.139772 C318.659819,167.139772 318.767041,167.159937 318.87132,167.202789 C322.558503,168.718972 326.128793,170.537216 329.482956,172.606686 C329.875264,172.84867 329.996782,173.362047 329.754586,173.753591 C329.596906,174.008599 329.324015,174.149336 329.044397,174.149336" id="Fill-96" fill="#9BAAFB"></path>
                <path d="M70.1573922,189.021712 C75.513037,192.149023 81.739915,195.063339 88.7131438,197.723906 L88.7131438,253.788237 C63.5440937,244.185743 48.1209129,231.266047 48.1209129,217.054087 L48.1209129,160.989756 C48.1209129,160.989756 46.8418148,175.256751 70.1573922,189.021712" id="Fill-97" fill="#9CABFF"></path>
                <path d="M197.954928,214.668273 C184.966743,214.668273 172.364978,214.075495 160.347259,212.962619 L160.347259,269.02695 C172.364978,270.139826 184.966743,270.732603 197.954928,270.732603 C219.40568,270.732603 239.797664,269.113913 258.247035,266.205479 L258.247035,210.141149 C239.797664,213.050002 219.40568,214.668273 197.954928,214.668273" id="Fill-98" fill="#9CABFF"></path>
                <path d="M206.800551,242.799794 C206.800551,254.015937 197.700118,263.108836 186.474161,263.108836 C175.247784,263.108836 166.147351,254.015937 166.147351,242.799794 C166.147351,231.583231 175.247784,222.490753 186.474161,222.490753 C197.700118,222.490753 206.800551,231.583231 206.800551,242.799794" id="Fill-99" fill="#798DFF"></path>
                <g id="Group-109" transform="translate(166.089325, 222.239106)">
                    <mask id="mask-4" fill="white">
                        <use xlink:href="#path-3"></use>
                    </mask>
                    <g id="Clip-101"></g>
                    <path d="M29.0942234,14.7476022 L29.092963,14.7476022 C29.0933831,14.7917022 29.0942234,14.8358022 29.0942234,14.8803222 L29.0942234,14.7476022" id="Fill-100" fill="#4C0000" mask="url(#mask-4)"></path>
                    <path d="M28.9781721,30.1749453 C27.699915,29.320438 26.2707059,28.6726257 24.7393203,28.2810816 L24.7393203,30.2047732 C24.2040501,32.6275575 22.5734314,34.4487419 20.3848366,35.9632447 C18.7735599,34.8482682 17.4654488,33.5669274 16.6732658,32.0024313 L16.6732658,34.0135061 C16.6732658,34.8390257 16.8847669,35.6515218 17.2871656,36.3728536 C17.6895643,37.0941855 17.9006449,37.9062615 17.9006449,38.7326212 L17.9006449,43.9974615 C17.9006449,43.9974615 11.6750283,43.5323978 11.6750283,37.8902972 C11.6750283,36.332943 11.6750283,32.0175553 11.6750283,30.253086 C8.02947277,32.7426682 5.63652505,36.9286615 5.63652505,41.6738235 L5.63652505,47.0974659 L35.1327277,47.0974659 L35.1327277,41.6738235 C35.1327277,36.8786682 32.6893224,32.6544447 28.9781721,30.1749453" id="Fill-102" fill="#FFFFFF" mask="url(#mask-4)"></path>
                    <path d="M20.3848366,27.3253274 L20.3848366,27.3257475 C19.5173878,27.3257475 18.0642113,26.8774883 16.6732658,25.9532425 L16.6732658,32.0024313 C17.4654488,33.5669274 18.7735599,34.8482682 20.3848366,35.9632447 C22.5734314,34.4487419 24.2040501,32.6275575 24.7393203,30.2047732 L24.7393203,25.4877587 C23.1713529,26.726248 21.3872593,27.3253274 20.3848366,27.3253274" id="Fill-103" fill="#FFDEB3" mask="url(#mask-4)"></path>
                    <path d="M20.3848366,14.9366525 L12.9621155,14.9366525 L12.9621155,19.3860559 C12.9621155,19.4255464 12.9621155,19.4646168 12.9629564,19.5041073 C13.002902,22.2776849 14.4586013,24.2832983 16.1325294,25.5688402 C16.3108126,25.7057966 16.4916187,25.8339307 16.6732658,25.9532425 C18.0642113,26.8774883 19.5173878,27.3257475 20.3848366,27.3257475 L20.3848366,27.3253274 C21.3872593,27.3253274 23.1713529,26.726248 24.7393203,25.4877587 C25.0328148,25.255857 25.3191612,25.0016894 25.5907908,24.7248358 L25.6214858,24.6929073 L25.7245033,24.5853587 L25.770756,24.5353654 L25.8552723,24.4425207 L25.9086732,24.3824447 L25.9835185,24.2963218 L26.0398627,24.229524 L26.1092418,24.1459218 L26.167268,24.0736626 L26.2311808,23.9921609 L26.2900479,23.9152804 L26.3501765,23.834619 L26.4094641,23.7535374 L26.4658083,23.6737162 L26.5246754,23.5884335 L26.5772353,23.5094525 L26.6365229,23.4191285 L26.684878,23.342248 L26.7437451,23.2468827 L26.7878954,23.1721028 L26.847183,23.0708559 L26.8858671,23.0011173 L26.9459956,22.8914682 L26.9750087,22.8355933 C27.0578431,22.6767911 27.1360523,22.5133676 27.2087952,22.345743 L27.2092157,22.3440626 C27.2293987,22.2974302 27.2487407,22.2499575 27.2680828,22.2024849 L27.2891068,22.1503911 C27.3067669,22.1066994 27.3231656,22.0625877 27.3399847,22.018476 L27.3643725,21.9525184 C27.3799303,21.909667 27.3946471,21.8663955 27.4097843,21.823124 L27.4337516,21.751705 C27.4480479,21.7088536 27.4619237,21.665162 27.4753791,21.6218905 L27.498085,21.5466905 C27.5111198,21.503419 27.5233137,21.4597274 27.5355076,21.4160358 L27.5569521,21.3383151 C27.5687255,21.2942034 27.579658,21.2500916 27.5905904,21.2055598 L27.6099325,21.1261587 C27.6204444,21.0812067 27.6301155,21.0362547 27.640207,20.9904626 L27.6566057,20.9110615 C27.6658562,20.8648492 27.6751068,20.8182168 27.6830959,20.7715844 L27.6973922,20.6926034 C27.7053813,20.6447106 27.7133704,20.5968179 27.7205185,20.548505 L27.731451,20.4720447 C27.7385991,20.4220514 27.7453268,20.3720581 27.751634,20.3216447 L27.7592026,20.2502257 C27.7650893,20.1972916 27.770976,20.1443575 27.7756013,20.0905832 L27.7802266,20.0305073 C27.7852723,19.9725318 27.7894771,19.9145564 27.7932614,19.8557408 L27.7945229,19.8246525 C27.802512,19.6801341 27.8071373,19.5343553 27.8071373,19.3860559 C27.8071373,17.1792089 27.8071373,14.9433743 27.8071373,14.9366525 L20.3848366,14.9366525" id="Fill-104" fill="#FFDEB3" mask="url(#mask-4)"></path>
                    <path d="M29.0942244,14.8803575 C29.0942244,14.8358257 29.0933834,14.791714 29.092963,14.7476022 C29.0332549,9.97681341 25.8346688,6.13153073 21.8968802,6.13153073 L18.8719521,6.13153073 C14.880342,6.13153073 11.651061,10.0818413 11.6748958,14.9366525 L11.6748958,29.485962 C11.6748958,29.4960447 11.6748958,29.7850816 11.6748958,30.253086 C11.6748958,32.0175553 11.6748958,36.332943 11.6748958,37.8902972 C11.6748958,43.5323978 17.9006449,43.9974615 17.9006449,43.9974615 L17.9006449,38.7326212 C17.9006449,37.9062615 17.6895643,37.0941855 17.2871656,36.3728536 C16.8847669,35.6515218 16.6732658,34.8390257 16.6732658,34.0135061 L16.6732658,25.9532425 C16.4916187,25.8339307 16.3108126,25.7057966 16.1325294,25.5688402 C14.4586013,24.2832983 13.002902,22.2776849 12.9629564,19.5041073 C12.9621155,19.4646168 12.9621155,19.4255464 12.9621155,19.386476 L12.9621155,14.9366525 L27.8071373,14.9366525 C27.8071373,14.9433743 27.8071373,17.1792089 27.8071373,19.3860559 C27.8071373,19.5343553 27.802512,19.6801341 27.7945229,19.8246525 L27.7932614,19.8557408 C27.7898976,19.9145564 27.7848519,19.9725318 27.7802266,20.0305073 L27.7756013,20.0905832 C27.770976,20.1443575 27.7650893,20.1972916 27.7592026,20.2502257 L27.751634,20.3216447 C27.7453268,20.3720581 27.7385991,20.4220514 27.731451,20.4720447 L27.7205185,20.548505 C27.7133704,20.5968179 27.7053813,20.6447106 27.6969717,20.6926034 L27.6835163,20.7715844 C27.6746863,20.8182168 27.6658562,20.8648492 27.6566057,20.9110615 L27.6397865,20.9904626 C27.6301155,21.0362547 27.620024,21.0812067 27.6099325,21.1261587 L27.5905904,21.2055598 C27.579658,21.2500916 27.568305,21.2942034 27.5569521,21.3383151 L27.5355076,21.4160358 C27.5233137,21.4597274 27.5111198,21.503419 27.498085,21.5466905 L27.4749586,21.6218905 C27.4615033,21.665162 27.4480479,21.7088536 27.4337516,21.751705 L27.4097843,21.8227039 C27.3946471,21.8663955 27.3799303,21.909667 27.3643725,21.9525184 L27.3395643,22.018476 C27.3231656,22.0625877 27.3067669,22.1066994 27.2891068,22.1503911 L27.2680828,22.2024849 C27.2487407,22.2499575 27.2293987,22.2974302 27.2092157,22.3440626 L27.2087952,22.345743 C27.1360523,22.5133676 27.0578431,22.6767911 26.9750087,22.8355933 L26.9459956,22.8914682 L26.8858671,23.0011173 L26.847183,23.0708559 L26.7878954,23.1721028 L26.7437451,23.2468827 L26.684878,23.342248 L26.6365229,23.4191285 L26.5772353,23.5094525 L26.5246754,23.5884335 L26.4658083,23.6737162 L26.4094641,23.7535374 L26.3501765,23.834619 L26.2900479,23.9152804 L26.2311808,23.9921609 L26.167268,24.0736626 L26.1092418,24.1459218 L26.0398627,24.229524 L25.9835185,24.2963218 L25.9082527,24.3824447 L25.8552723,24.4425207 L25.770756,24.5353654 L25.7245033,24.5853587 L25.6214858,24.6929073 L25.5907908,24.7248358 C25.4574989,24.860952 25.3204227,24.9916067 25.1808235,25.1168 C25.0172571,25.263419 24.8696688,25.4255821 24.7393203,25.5990883 L24.7393203,28.2810816 C26.2707059,28.6726257 27.699915,29.320438 28.9781721,30.1749453 C29.0530174,29.952286 29.0938039,29.7157631 29.0938039,29.4729385 L29.0938039,17.2048358 L29.0942244,17.2048358 L29.0942244,14.8803575" id="Fill-105" fill="#415A94" mask="url(#mask-4)"></path>
                    <path d="M24.674146,30.4757453 C24.6745661,30.4740648 24.6754064,30.4719642 24.6758266,30.4698637 C24.6754064,30.4715441 24.6745661,30.4740648 24.674146,30.4757453 M24.6838095,30.4383553 C24.6842296,30.437095 24.6846498,30.4362547 24.6846498,30.4349944 C24.6842296,30.4362547 24.6842296,30.437095 24.6838095,30.4383553 M24.6884312,30.4207106 C24.6892715,30.4173497 24.6901118,30.4144089 24.6909521,30.411048 C24.6901118,30.4144089 24.6892715,30.4173497 24.6884312,30.4207106 M24.6938931,30.3980246 C24.6955737,30.3913028 24.6972544,30.384581 24.698935,30.3774391 C24.6972544,30.384581 24.6955737,30.3913028 24.6938931,30.3980246 M24.701876,30.3665162 C24.7027163,30.361895 24.7039768,30.3572737 24.7052373,30.3522324 C24.7039768,30.3572737 24.7027163,30.361895 24.701876,30.3665162 M24.7077582,30.3421497 C24.7094388,30.3345877 24.7111194,30.3274458 24.7128,30.3198838 C24.7111194,30.3274458 24.7094388,30.3345877 24.7077582,30.3421497 M24.7149008,30.3114816 C24.7161612,30.3056 24.7174217,30.3005587 24.7191023,30.2946771 C24.7174217,30.3001385 24.7161612,30.3060201 24.7149008,30.3114816 M24.7207829,30.2862749 C24.7228837,30.2782927 24.7245643,30.2703106 24.7262449,30.2623285 C24.7245643,30.2703106 24.7228837,30.2782927 24.7207829,30.2862749 M24.7275053,30.2581274 C24.7287658,30.2509855 24.7304464,30.2438436 24.732127,30.2367017 C24.7304464,30.2438436 24.729186,30.2509855 24.7275053,30.2581274 M24.7338076,30.2295598 C24.7354882,30.2215777 24.737589,30.2131754 24.7392696,30.2047732 L24.7392696,28.2810816 L24.7392696,30.2047732 C24.737589,30.2131754 24.7354882,30.2215777 24.7338076,30.2295598" id="Fill-106" fill="#FFDEB3" mask="url(#mask-4)"></path>
                    <path d="M22.2841416,34.4168134 L22.2841416,29.8350749 C18.5889695,29.0578682 17.2110588,27.2076961 16.6963922,25.9687866 C18.0587451,26.8682458 19.4770218,27.3118838 20.3436296,27.3257475 C20.3440501,27.3257475 20.3444706,27.3257475 20.3448911,27.3257475 C20.3478344,27.3257475 20.3511983,27.3257475 20.3541416,27.3257475 C20.3545621,27.3257475 20.3554031,27.3257475 20.3558235,27.3257475 C20.3654946,27.3257475 20.3751656,27.3257475 20.3848366,27.3257475 L20.3848366,27.3253274 C21.3872593,27.3253274 23.1713529,26.726248 24.7393203,25.4877587 L24.7393203,30.2047732 C24.7376383,30.2131754 24.7355359,30.2215777 24.733854,30.2295598 C24.7334336,30.2320804 24.7325926,30.2346011 24.7321721,30.2367017 C24.7304902,30.2438436 24.7288083,30.2509855 24.7275468,30.2581274 C24.7271264,30.2593877 24.7267059,30.260648 24.7262854,30.2623285 C24.7246035,30.2703106 24.7229216,30.2782927 24.7208192,30.2862749 C24.7203987,30.2887955 24.7195577,30.2917363 24.7191373,30.2946771 C24.7174553,30.3005587 24.7161939,30.3056 24.7149325,30.3114816 C24.7140915,30.3144223 24.713671,30.3173631 24.7128301,30.3198838 C24.7111481,30.3274458 24.7094662,30.3345877 24.7077843,30.3421497 C24.7069434,30.3455106 24.7061024,30.3488715 24.7052614,30.3522324 C24.704,30.3572737 24.7027386,30.361895 24.7018976,30.3665162 C24.7010566,30.3702972 24.6997952,30.3740782 24.6989542,30.3774391 C24.6972723,30.384581 24.6955904,30.3913028 24.6939085,30.3980246 C24.6930675,30.4022257 24.6918061,30.4068469 24.6909651,30.411048 C24.6901242,30.4144089 24.6892832,30.4173497 24.6884423,30.4207106 C24.6871808,30.4253318 24.6859194,30.4303732 24.684658,30.4349944 C24.684658,30.4362547 24.6842375,30.437095 24.683817,30.4383553 C24.6812941,30.4488581 24.6787712,30.4593609 24.6758279,30.4698637 C24.6754074,30.4719642 24.6745664,30.4740648 24.674146,30.4757453 C24.2763725,32.008733 23.4312092,33.2959553 22.2841416,34.4168134" id="Fill-107" fill="#FFC17E" mask="url(#mask-4)"></path>
                    <path d="M20.3848366,27.3257475 C20.3751656,27.3257475 20.3654946,27.3257475 20.3558235,27.3257475 C20.3654946,27.3257475 20.3751656,27.3257475 20.3848366,27.3257475 M20.3541416,27.3257475 C20.3511983,27.3257475 20.3478344,27.3257475 20.3448911,27.3257475 C20.3478344,27.3257475 20.3511983,27.3257475 20.3541416,27.3257475 M20.3436296,27.3257475 C19.4770218,27.3118838 18.0587451,26.8682458 16.6963922,25.9687866 C16.6963922,25.9683665 16.6963922,25.9683665 16.6959717,25.9679464 C18.0587451,26.8674056 19.4770218,27.3118838 20.3436296,27.3257475" id="Fill-108" fill="#FFC17E" mask="url(#mask-4)"></path>
                </g>
                <path d="M212.253747,232.226002 C211.806357,232.226002 211.435915,231.871428 211.420778,231.421068 C211.4048,230.961046 211.765571,230.575383 212.225996,230.559839 C221.299519,230.251057 230.328891,229.641895 239.063087,228.747897 C239.089998,228.745377 239.116488,228.744116 239.142978,228.744116 C239.561776,228.744116 239.9339,229.061301 239.97763,229.492335 C240.024303,229.949837 239.691283,230.359026 239.232961,230.406078 C230.460922,231.303437 221.393706,231.91596 212.28234,232.225162 L212.253747,232.226002" id="Fill-110" fill="#798AEC"></path>
                <path d="M212.256691,238.057993 C211.809301,238.057993 211.438858,237.702999 211.423721,237.253059 C211.407743,236.793037 211.768514,236.407374 212.228939,236.39183 C224.504412,235.974659 236.602442,235.012183 248.185386,233.531709 C248.220285,233.527508 248.254765,233.525408 248.288824,233.525408 C248.702155,233.525408 249.064187,233.831249 249.11885,234.252621 C249.176876,234.709283 248.853948,235.126454 248.397307,235.185269 C236.762645,236.672045 224.612895,237.638302 212.285283,238.057153 L212.256691,238.057993" id="Fill-111" fill="#798AEC"></path>
                <path d="M212.458941,243.882842 C212.011551,243.882842 211.641529,243.528268 211.625972,243.077908 C211.609993,242.618306 211.970344,242.232644 212.430769,242.216679 C221.944954,241.888992 231.404057,241.229837 240.544856,240.257698 C240.573028,240.254758 240.6012,240.253497 240.629373,240.253497 C241.051954,240.253497 241.41651,240.568581 241.462763,240.997935 C241.511118,241.455857 241.17978,241.865886 240.721458,241.914619 C231.541133,242.890959 222.042505,243.553055 212.487954,243.882002 L212.458941,243.882842" id="Fill-112" fill="#798AEC"></path>
                <path d="M212.456839,249.715254 C212.009449,249.715254 211.639427,249.360679 211.623869,248.91032 C211.607891,248.450717 211.968242,248.065055 212.428667,248.049091 C223.772357,247.657966 234.984438,246.800098 245.753754,245.498172 C245.789495,245.493971 245.824815,245.49145 245.860135,245.49145 C246.275989,245.49145 246.630874,245.803593 246.681752,246.224965 C246.737255,246.682047 246.411383,247.097117 245.954322,247.152572 C235.137492,248.45996 223.877477,249.322029 212.485852,249.714413 L212.456839,249.715254" id="Fill-113" fill="#798AEC"></path>
                <path d="M212.464407,255.546825 C212.017017,255.546825 211.646996,255.19225 211.631438,254.741891 C211.61546,254.282288 211.97581,253.896626 212.436235,253.880661 C221.934022,253.553394 231.376725,252.895499 240.503229,251.926302 C240.533503,251.922941 240.564198,251.92126 240.594473,251.92126 C241.012429,251.92126 241.374882,252.239705 241.420294,252.666959 C241.46907,253.12446 241.137312,253.534489 240.678989,253.583642 C231.513802,254.557041 222.030732,255.217457 212.49342,255.545984 L212.464407,255.546825" id="Fill-114" fill="#798AEC"></path>
                <g id="Group-128" transform="translate(53.821351, 195.351955)">
                    <mask id="mask-6" fill="white">
                        <use xlink:href="#path-5"></use>
                    </mask>
                    <g id="Clip-116"></g>
                    <path d="M20.5307429,3.55834637 C18.9989368,2.24675754 17.3144967,1.25067263 15.5295621,0.66461676 C9.38551852,-1.34939888 3.84906754,2.07913296 1.37496732,8.648 C0.650061002,10.5721117 0.187954248,12.7655151 0.0504575163,15.1710749 C-0.284244009,21.0240715 1.37412636,26.9089966 4.26113725,31.4483039 C5.05710458,29.8312939 6.15707843,28.5692782 7.45720044,27.760143 C7.53667102,27.8706324 7.61782353,27.9777609 7.70065795,28.0815285 C7.61782353,27.9777609 7.53667102,27.8706324 7.45720044,27.760143 C7.38950327,27.6668782 7.32474946,27.5727732 7.26167756,27.4753073 C6.72010022,26.6497877 6.43711765,25.5902659 6.49598475,24.5908201 L6.77476253,19.694838 C6.79957081,19.2453184 6.88745098,18.826467 7.0312549,18.4592894 C7.17463834,18.0841296 7.37688889,17.7598034 7.62581264,17.5022749 C8.11567102,16.9998212 8.40958606,16.2133721 8.46172549,15.3239955 L8.56179956,13.5817922 L8.58282353,13.1915084 L8.64169063,12.1681162 C8.9002854,7.65149497 11.8478453,4.89010056 15.2242941,5.99709497 C15.9841002,6.24664134 16.7005969,6.67011397 17.3523399,7.22844246 C19.5993813,9.15381453 21.0744227,12.6798123 20.874695,16.1785028 L20.8254989,17.0271285 L20.6947298,19.3348022 L20.6934684,19.337743 C20.6417495,20.2266994 20.8402157,21.1711106 21.2560697,21.9747844 C21.4658889,22.3801922 21.6239891,22.8229899 21.7190174,23.2775508 C21.8157277,23.7262302 21.8527298,24.1858324 21.8279216,24.635352 L21.5466209,29.5292335 C21.4898562,30.5307799 21.1017538,31.3693229 20.4870131,31.8150615 C20.4146906,31.865895 20.3402658,31.915048 20.2637386,31.9621006 C19.8419978,32.2234101 19.3895621,32.3918749 18.9156819,32.4603531 L18.8404161,32.4700156 C18.3047255,32.5363933 17.7459085,32.4817788 17.1858301,32.2973497 L16.4117277,32.042762 L17.1858301,32.2973497 C17.7459085,32.4817788 18.3047255,32.5363933 18.8404161,32.4700156 L18.9156819,32.4603531 C19.3895621,32.3918749 19.8419978,32.2234101 20.2637386,31.9621006 C21.4263638,33.5795307 22.3446906,35.5032223 22.9295773,37.5731128 C24.8679869,36.0926391 26.4481481,33.8878927 27.4879935,31.1285989 C28.2128998,29.204067 28.675427,27.0102436 28.8129237,24.6051039 C29.2813377,16.3751151 25.8140654,8.08421006 20.5307429,3.55834637 Z M14.9354237,11.0787665 C14.9345839,11.080867 15.3975316,12.0752715 16.2548889,12.8470168 C15.3975316,12.0752715 14.9345839,11.080867 14.9354237,11.0787665 Z M18.1327495,14.0401341 L18.0869172,14.0014838 L18.1327495,14.0401341 Z M18.2214706,14.118695 C19.2600545,15.0706682 19.7154336,16.592733 19.8474641,17.1149318 C19.7154336,16.592733 19.2604749,15.0706682 18.2214706,14.118695 Z M17.4364357,13.5851531 C17.3943878,13.5649877 17.3519194,13.5460827 17.30861,13.528438 C17.3519194,13.5460827 17.3943878,13.5649877 17.4364357,13.5851531 Z M16.3928061,12.9659084 L16.3389847,12.9209564 L16.3928061,12.9659084 Z M17.5760349,25.8204872 C17.4494706,25.9255151 17.3216449,26.0263419 17.1921373,26.1137251 L17.1837277,26.2195933 C17.2867451,26.0859978 17.3969107,25.9662659 17.5213725,25.8666994 L17.5760349,25.8204872 Z M10.7554401,23.6106994 L10.7844532,23.6585922 C10.8908344,23.8316782 10.9862832,24.0182078 11.0691176,24.2135598 L11.0750044,24.1060112 L11.143122,24.2072581 C11.4559586,24.658038 11.7843529,25.0588246 12.1093834,25.4041564 L12.1110654,25.4058369 C11.7856144,25.0600849 11.4563791,24.6584581 11.143122,24.2072581 L11.0750044,24.1060112 C10.9665207,23.9467888 10.859719,23.7816849 10.7554401,23.6106994 Z M12.1194749,25.4150793 L12.1211569,25.4167598 L12.1594205,25.4570905 L12.1606819,25.4583508 L12.1194749,25.4150793 Z M12.1842288,25.4827173 L12.1880131,25.4864983 L12.2124009,25.511705 L12.2128214,25.5125453 L12.1842288,25.4827173 Z M12.3339194,25.6343777 L12.3347603,25.635638 L12.3368627,25.6373184 L12.3389651,25.6398391 L12.3339194,25.6343777 Z M12.3990937,25.6986547 L12.3990937,25.6990749 L12.3990937,25.6986547 Z M16.3654749,32.1351866 C15.7246645,33.3972022 14.7470501,34.2865788 13.5701285,34.9532961 C12.4869739,33.5194547 11.6296166,31.9957095 11.1595207,30.320724 L11.1792832,30.3261855 L11.1595207,30.320724 L10.3858388,30.0661363 C9.82533987,29.8821274 9.28250109,29.576286 8.77245969,29.1666771 L8.70266013,29.1108022 L8.62823529,29.0477855 L8.70266013,29.1108022 L8.77245969,29.1666771 C8.82964488,29.621238 8.91037691,30.1043665 9.01171242,30.5954771 C8.91037691,30.1043665 8.82964488,29.621238 8.77245969,29.1666771 C9.28250109,29.576286 9.82533987,29.8821274 10.3858388,30.0661363 L11.1595207,30.320724 C11.6296166,31.9957095 12.4869739,33.5194547 13.5701285,34.9532961 C13.5701285,34.9532961 13.7357974,35.8523352 14.4552375,36.4921654 C13.7362179,35.8523352 13.5701285,34.9532961 13.5701285,34.9532961 C14.7470501,34.2865788 15.7246645,33.3972022 16.3654749,32.1351866 Z M9.10211547,31.0113877 C9.40990632,32.3582659 9.86402397,33.7118659 10.4051808,34.6285497 C9.86402397,33.7118659 9.40948584,32.3578458 9.10211547,31.0113877 Z M13.5684466,34.9583374 C13.5339673,35.0511821 13.0071068,36.3984804 11.4000349,35.6851307 L11.2982789,35.6330369 L11.4000349,35.6851307 C13.0071068,36.3984804 13.5339673,35.0511821 13.5684466,34.9583374 Z M15.3945882,37.0089028 L15.3273115,36.9883173 L15.3945882,37.0089028 Z M14.5426972,36.5665251 L14.4897168,36.5224134 L14.5426972,36.5665251 Z M13.6533834,36.4686391 L13.6340414,36.4526749 L13.6533834,36.4686391 Z M13.5945163,36.4241073 L13.4893965,36.3699128 L13.5945163,36.4241073 Z M13.9107168,37.457162 C13.8245185,37.6962056 13.6289956,37.8247598 13.4103464,37.7651039 L13.3939477,37.7588022 C13.3287734,37.7373765 13.2678039,37.7008268 13.2118802,37.6533542 C13.2678039,37.7008268 13.3287734,37.7373765 13.3939477,37.7588022 L13.4103464,37.7651039 C13.6289956,37.8247598 13.8245185,37.6962056 13.9107168,37.457162 Z M12.9570697,36.6610503 C12.9326819,36.7291084 12.9167037,36.8064089 12.911658,36.8904313 C12.8969412,37.1403978 12.9831394,37.3912045 13.124,37.5626101 C12.9831394,37.3912045 12.8969412,37.1403978 12.911658,36.8904313 C12.9167037,36.8064089 12.9326819,36.7291084 12.9570697,36.6610503 Z M11.0792092,35.4788559 L11.0657538,35.4675128 L11.0792092,35.4788559 L11.0792092,35.4788559 Z" id="Fill-115" fill="#8D9DFA" mask="url(#mask-6)"></path>
                    <path d="M20.2637386,31.9621006 C19.8419978,32.2234101 19.3895621,32.3918749 18.9156819,32.4603531 L18.8404161,32.4700156 C18.2559499,34.6865251 16.8801416,37.2895374 15.6086122,37.0609966 L15.5787582,37.0551151 C15.5152658,37.0416715 15.4538758,37.0261274 15.3945882,37.0089028 L15.3273115,36.9883173 C15.0153159,36.8887508 14.7567211,36.7396112 14.5426972,36.5665251 L14.4897168,36.5224134 L14.4552375,36.4921654 C13.7357974,35.8523352 13.5701285,34.9532961 13.5701285,34.9532961 L13.5684466,34.9583374 C13.5339673,35.0511821 13.0071068,36.3984804 11.4000349,35.6851307 L11.2982789,35.6330369 C11.2242745,35.5910257 11.1515316,35.539352 11.0792092,35.4788559 L11.0657538,35.4675128 C10.8349107,35.2696402 10.6137386,34.9814436 10.4051808,34.6285497 C9.86402397,33.7118659 9.40990632,32.3582659 9.10211547,31.0113877 C9.07057952,30.8723307 9.04030501,30.7332737 9.01171242,30.5954771 C8.91037691,30.1043665 8.82964488,29.621238 8.77245969,29.1666771 L8.70266013,29.1108022 L8.62823529,29.0477855 C8.54918519,28.9805676 8.47139651,28.9104089 8.3944488,28.8377296 C8.31750109,28.7650503 8.24139434,28.6902704 8.16654902,28.6125497 C8.00592593,28.4466056 7.85034858,28.2693184 7.70065795,28.0815285 C7.61782353,27.9777609 7.53667102,27.8706324 7.45720044,27.760143 C6.15707843,28.5692782 5.05710458,29.8312939 4.26113725,31.4483039 C5.43301307,33.2904939 6.80671895,34.9108648 8.33221786,36.2174123 C9.86402397,37.5294212 11.5484641,38.5255061 13.3338192,39.111562 C16.8952789,40.2798927 20.2536471,39.6169564 22.9295773,37.5731128 C22.3446906,35.5032223 21.4263638,33.5795307 20.2637386,31.9621006 Z M13.6533834,36.4686391 C13.8447015,36.6324827 13.9704248,36.9341229 13.9552876,37.2319821 C13.9502418,37.3147441 13.9346841,37.3903642 13.9107168,37.457162 C13.8245185,37.6962056 13.6289956,37.8247598 13.4103464,37.7651039 L13.3939477,37.7588022 C13.3287734,37.7373765 13.2678039,37.7008268 13.2118802,37.6533542 L13.124,37.5626101 C12.9831394,37.3912045 12.8969412,37.1403978 12.911658,36.8904313 C12.9167037,36.8064089 12.9326819,36.7291084 12.9570697,36.6610503 C13.0457908,36.4178056 13.2476209,36.2892514 13.4729978,36.3640313 L13.4893965,36.3699128 L13.5945163,36.4241073 L13.6340414,36.4526749 L13.6533834,36.4686391 L13.6533834,36.4686391 Z" id="Fill-117" fill="#304FFE" mask="url(#mask-6)"></path>
                    <path d="M11.1595207,30.320724 L10.3858388,30.0661363 C9.82533987,29.8821274 9.28250109,29.576286 8.77245969,29.1666771 C8.82964488,29.621238 8.91037691,30.1043665 9.01171242,30.5954771 C9.04030501,30.7332737 9.07057952,30.8723307 9.10211547,31.0113877 C9.40948584,32.3578458 9.86402397,33.7118659 10.4051808,34.6285497 C10.6137386,34.9814436 10.8349107,35.2696402 11.0657538,35.4675128 L11.0792092,35.4788559 C11.1515316,35.539352 11.2242745,35.5910257 11.2982789,35.6330369 L11.4000349,35.6851307 C13.0071068,36.3984804 13.5339673,35.0511821 13.5684466,34.9583374 L13.5701285,34.9532961 C12.4869739,33.5194547 11.6296166,31.9957095 11.1595207,30.320724" id="Fill-118" fill="#FFFFFF" mask="url(#mask-6)"></path>
                    <path d="M18.8404161,32.4700156 C18.3047255,32.5363933 17.7459085,32.4817788 17.1858301,32.2973497 L16.4117277,32.042762 L16.3654749,32.1351866 C15.7246645,33.3972022 14.7470501,34.2865788 13.5701285,34.9532961 C13.5701285,34.9532961 13.7362179,35.8523352 14.4552375,36.4921654 L14.4897168,36.5224134 L14.5426972,36.5665251 C14.7567211,36.7396112 15.0153159,36.8887508 15.3273115,36.9883173 L15.3945882,37.0089028 C15.4538758,37.0261274 15.5152658,37.0416715 15.5787582,37.0551151 L15.6086122,37.0609966 C16.8801416,37.2895374 18.2559499,34.6865251 18.8404161,32.4700156" id="Fill-119" fill="#FFFFFF" mask="url(#mask-6)"></path>
                    <path d="M11.0750044,24.1060112 L11.0691176,24.2135598 C11.3243486,24.8134793 11.4534357,25.4843978 11.4202179,26.1326302 L11.4193769,26.1515352 L11.1792832,30.3261855 L11.1595207,30.320724 C11.6296166,31.9957095 12.4869739,33.5194547 13.5701285,34.9532961 C14.7470501,34.2865788 15.7246645,33.3972022 16.3654749,32.1351866 C15.8987429,33.0497698 15.2558301,33.7698413 14.4871939,34.3504358 L14.7659717,29.4968849 C14.5590959,29.3574078 14.3656754,29.2091084 14.1840283,29.053667 C12.7522963,27.8269408 12.0732222,26.1569966 11.7561808,25.0084112 C11.873915,25.1474682 11.9916492,25.2793832 12.1093834,25.4041564 C11.7843529,25.0588246 11.4559586,24.658038 11.143122,24.2072581 L11.0750044,24.1060112 Z M14.0339172,26.8392581 L14.0023813,26.8283352 C13.8615207,26.7783419 13.7004771,26.699781 13.5255577,26.594333 C13.713512,26.7077631 13.8850675,26.790105 14.0339172,26.8392581 Z M13.4624858,26.5556827 L13.459122,26.5535821 L13.4624858,26.5556827 Z M12.1211569,25.4167598 L12.1594205,25.4570905 L12.1211569,25.4167598 Z M12.1880131,25.4864983 L12.2124009,25.511705 L12.1880131,25.4864983 Z M12.3347603,25.635638 L12.3368627,25.6373184 L12.3347603,25.635638 L12.3347603,25.635638 Z" id="Fill-120" fill="#FABD99" mask="url(#mask-6)"></path>
                    <path d="M14.9354248,11.0787665 C14.9354248,11.0787665 14.9257538,11.1064939 14.9068322,11.1569073 C14.7537778,11.5660961 13.9910283,13.4641609 12.8515294,13.9460291 C11.4584815,14.5308246 9.46625054,13.8779709 9.46372767,13.8758704 L9.4591024,13.9808983 L9.36365359,15.6184939 L9.24886275,17.6673788 C9.24339651,17.7484603 9.23919172,17.8266011 9.23835076,17.9034816 L9.23414597,17.9816223 C9.23414597,18.0320358 9.23288453,18.0853899 9.23162309,18.1387441 L9.23204357,18.2290682 C9.23330501,18.2761207 9.23162309,18.3219128 9.23246405,18.3693855 L9.23456645,18.4643307 C9.23540741,18.5118034 9.2375098,18.5563352 9.2396122,18.600867 L9.24129412,18.6958123 C9.24339651,18.7403441 9.24549891,18.784876 9.2497037,18.8315084 L9.25516993,18.9256134 C9.25727233,18.9701453 9.26147712,19.0167777 9.26484096,19.0583687 L9.27240959,19.1461721 C9.27787582,19.1978458 9.28250109,19.2444782 9.28586492,19.2940514 L9.29511547,19.3679911 C9.30226362,19.4326883 9.30941176,19.4969654 9.31740087,19.5583017 L9.32160566,19.5893899 C9.33253813,19.6608089 9.34305011,19.7318078 9.35356209,19.8036469 L9.36533551,19.871705 C9.37248366,19.920438 9.38131373,19.9708514 9.39182571,20.0187441 L9.40486057,20.1002458 L9.4305098,20.2309006 L9.44859041,20.3166034 L9.47634205,20.4413765 L9.49442266,20.5270793 L9.52595861,20.6510123 L9.54488017,20.7333542 L9.57977996,20.856867 L9.59996296,20.9362682 L9.63864706,21.0665028 L9.65840959,21.1379218 C9.67354684,21.1895955 9.68826362,21.2416894 9.70550327,21.2950436 L9.71895861,21.334114 C9.74124401,21.3996514 9.76100654,21.4635084 9.78329194,21.5290458 L9.80179303,21.5798793 C9.81777124,21.6286123 9.83501089,21.6744045 9.85183007,21.7201966 L9.87789978,21.792876 L9.92162963,21.9084067 L9.95232462,21.984867 L9.99521351,22.0953564 L10.0280109,22.1743374 L10.0730022,22.2789453 L10.107061,22.3545654 L10.1528932,22.4642145 L10.1856906,22.5352134 C10.2029303,22.5730235 10.2210109,22.6078927 10.2378301,22.6457028 L10.269366,22.7116603 C10.2912309,22.7536715 10.3118344,22.7986235 10.3332789,22.8406346 L10.3551438,22.8822257 C10.3828954,22.9414615 10.4119085,22.9973363 10.4409216,23.0532112 L10.4611046,23.090181 C10.4850719,23.1338726 10.5069368,23.1758838 10.5309041,23.2199955 L10.5645425,23.2796514 L10.6225686,23.3838391 L10.6608322,23.4476961 L10.715915,23.5418011 L10.7554401,23.6106994 C10.859719,23.7816849 10.9665207,23.9467888 11.0750044,24.1060112 L11.143122,24.2072581 C11.4563791,24.6584581 11.7856144,25.0600849 12.1110654,25.4058369 L12.1194749,25.4150793 L12.1606819,25.4583508 L12.1842288,25.4827173 L12.2132418,25.5129654 C12.2536078,25.5541363 12.2935534,25.5948872 12.3339194,25.6343777 L12.3389651,25.6398391 L12.3990937,25.6986547 L12.3990937,25.6990749 C12.5264989,25.8225877 12.6522222,25.9372782 12.7754227,26.0427263 C13.0163573,26.2490011 13.2472004,26.4204067 13.459122,26.5535821 L13.4624858,26.5556827 L13.5255577,26.594333 C13.7004771,26.699781 13.8615207,26.7783419 14.0023813,26.8283352 L14.0339172,26.8392581 L14.0347582,26.8363173 C14.7386405,27.0694793 16.0227843,26.9169788 17.1921373,26.1137251 C17.3216449,26.0263419 17.4494706,25.9255151 17.5760349,25.8204872 L17.6214466,25.7814168 L17.6819956,25.7280626 L17.7812288,25.6381587 L17.8245381,25.5974078 L17.8834052,25.5390123 L17.9267146,25.4982615 L17.9834793,25.4381855 L18.0255272,25.3923933 L18.0822919,25.3318972 L18.1243399,25.2865251 L18.1798431,25.2209877 L18.2193682,25.1735151 L18.2752919,25.1083978 L18.315658,25.0575642 L18.3690588,24.9903464 L18.4073224,24.9374123 L18.4594619,24.8655732 L18.4977255,24.8126391 L18.547342,24.7382793 L18.5830828,24.6836648 L18.6339608,24.6063642 L18.670122,24.5517497 L18.7193181,24.4698279 L18.7529564,24.4126927 L18.8000501,24.3286704 L18.8303246,24.2727955 L18.8795207,24.1828916 L18.9051699,24.1307978 L18.954366,24.0329117 L18.9577298,24.0320715 C18.9976754,23.9497296 19.0355185,23.8652872 19.0708388,23.7787441 L19.096488,23.7270704 L19.1343312,23.6346458 L19.1616623,23.5611263 L19.1948802,23.4724827 L19.2247342,23.3930816 L19.2575316,23.304438 L19.2861242,23.2199955 L19.3142963,23.1275709 L19.3689586,22.9486034 L19.3946078,22.8540782 L19.4198366,22.762914 L19.4442244,22.6633475 L19.4656688,22.5726034 L19.4892157,22.4684156 L19.5081373,22.3755709 L19.5291612,22.2692827 L19.5657429,22.0634279 L19.5800392,21.9668022 C19.5876078,21.9302525 19.593915,21.8886615 19.5989608,21.8504313 L19.6119956,21.7567464 C19.61578,21.7130547 19.6220871,21.6718838 19.625451,21.6281922 L19.6368039,21.5403888 C19.6401678,21.4891352 19.6464749,21.4399821 19.6489978,21.3912492 L19.6578279,21.3173095 C19.6620327,21.2391687 19.6674989,21.1660693 19.6717037,21.0883486 C19.7124902,20.3800402 19.7541176,19.6687911 19.7902789,19.0386235 L19.786915,19.0394637 L19.8878301,17.2859173 C19.8823638,17.2619709 19.869329,17.2027352 19.8474641,17.1149318 C19.7154336,16.592733 19.2600545,15.0706682 18.2214706,14.118695 L18.1327495,14.0401341 L18.0869172,14.0014838 C17.8901329,13.8384804 17.6735861,13.6969028 17.4364357,13.5851531 C17.3943878,13.5649877 17.3519194,13.5460827 17.30861,13.528438 C17.1278039,13.4540782 16.9562484,13.362914 16.7943638,13.2599866 C16.7539978,13.2343598 16.7140523,13.2078927 16.6749477,13.1805855 C16.576976,13.1129475 16.4827887,13.0406883 16.3928061,12.9659084 L16.3389847,12.9209564 L16.2548889,12.8470168 C15.3975316,12.0752715 14.9345839,11.080867 14.9354248,11.0787665" id="Fill-121" fill="#FABD99" mask="url(#mask-6)"></path>
                    <path d="M17.3523399,7.22844246 C16.7005969,6.67011397 15.9841002,6.24664134 15.2242941,5.99709497 C11.8478453,4.89010056 8.9002854,7.65149497 8.64169063,12.1681162 L8.58282353,13.1915084 L8.56179956,13.5817922 L8.46172549,15.3239955 C8.40958606,16.2133721 8.11567102,16.9998212 7.62581264,17.5022749 C7.37688889,17.7598034 7.17463834,18.0841296 7.0312549,18.4592894 C6.88745098,18.826467 6.79957081,19.2453184 6.77476253,19.694838 L6.49598475,24.5908201 C6.43711765,25.5902659 6.72010022,26.6497877 7.26167756,27.4753073 C7.32474946,27.5727732 7.38950327,27.6668782 7.45720044,27.760143 C7.53667102,27.8706324 7.61782353,27.9777609 7.70065795,28.0815285 C7.85034858,28.2693184 8.00592593,28.4466056 8.16654902,28.6125497 C8.24139434,28.6902704 8.31750109,28.7650503 8.3944488,28.8377296 C8.47139651,28.9104089 8.54918519,28.9805676 8.62823529,29.0477855 L8.70266013,29.1108022 L8.77245969,29.1666771 C9.28250109,29.576286 9.82533987,29.8821274 10.3858388,30.0661363 L11.1595207,30.320724 L11.1792832,30.3261855 L11.4193769,26.1515352 L11.4202179,26.1326302 C11.4534357,25.4843978 11.3243486,24.8134793 11.0691176,24.2135598 C10.9862832,24.0182078 10.8908344,23.8316782 10.7844532,23.6585922 L10.7554401,23.6106994 L10.715915,23.5418011 L10.6608322,23.4476961 L10.6225686,23.3838391 L10.5645425,23.2796514 L10.5309041,23.2199955 C10.5069368,23.1758838 10.4850719,23.1338726 10.4611046,23.090181 L10.4409216,23.0532112 C10.4119085,22.9973363 10.3828954,22.9414615 10.3551438,22.8822257 L10.3332789,22.8406346 C10.3118344,22.7986235 10.2912309,22.7536715 10.269366,22.7116603 L10.2378301,22.6457028 C10.2210109,22.6078927 10.2029303,22.5730235 10.1856906,22.5352134 L10.1528932,22.4642145 L10.107061,22.3545654 L10.0730022,22.2789453 L10.0280109,22.1743374 L9.99521351,22.0953564 L9.95232462,21.984867 L9.92162963,21.9084067 L9.87789978,21.792876 L9.85183007,21.7201966 C9.83501089,21.6744045 9.81777124,21.6286123 9.80179303,21.5798793 L9.78329194,21.5290458 C9.76100654,21.4635084 9.74124401,21.3996514 9.71895861,21.334114 L9.70550327,21.2950436 C9.68826362,21.2416894 9.67354684,21.1895955 9.65840959,21.1379218 L9.63864706,21.0665028 L9.59996296,20.9362682 L9.57977996,20.856867 L9.54488017,20.7333542 L9.52595861,20.6510123 L9.49442266,20.5270793 L9.47634205,20.4413765 L9.44859041,20.3166034 L9.4305098,20.2309006 L9.40486057,20.1002458 L9.39182571,20.0187441 C9.38131373,19.9708514 9.37248366,19.920438 9.36533551,19.871705 L9.35356209,19.8036469 C9.34305011,19.7318078 9.33253813,19.6608089 9.32160566,19.5893899 L9.31740087,19.5583017 C9.30941176,19.4969654 9.30226362,19.4326883 9.29511547,19.3679911 L9.28586492,19.2940514 C9.28250109,19.2444782 9.27787582,19.1978458 9.27240959,19.1461721 L9.26484096,19.0583687 C9.26147712,19.0167777 9.25727233,18.9701453 9.25516993,18.9256134 L9.2497037,18.8315084 C9.24549891,18.784876 9.24339651,18.7403441 9.24129412,18.6958123 L9.2396122,18.600867 C9.2375098,18.5563352 9.23540741,18.5118034 9.23456645,18.4643307 L9.23246405,18.3693855 C9.23162309,18.3219128 9.23330501,18.2761207 9.23204357,18.2290682 L9.23162309,18.1387441 C9.23288453,18.0853899 9.23414597,18.0320358 9.23414597,17.9816223 L9.23835076,17.9034816 C9.23919172,17.8266011 9.24339651,17.7484603 9.24886275,17.6673788 L9.36365359,15.6184939 L9.4591024,13.9808983 L9.46372767,13.8758704 C9.46625054,13.8779709 11.4584815,14.5308246 12.8515294,13.9460291 C13.9910283,13.4641609 14.7537778,11.5660961 14.9068322,11.1569073 C14.9257538,11.1064939 14.9354248,11.0787665 14.9354248,11.0787665 C14.9345839,11.080867 15.3975316,12.0752715 16.2548889,12.8470168 L16.3389847,12.9209564 L16.3928061,12.9659084 C16.4827887,13.0406883 16.576976,13.1129475 16.6749477,13.1805855 C16.7140523,13.2078927 16.7539978,13.2343598 16.7943638,13.2599866 C16.9562484,13.362914 17.1278039,13.4540782 17.30861,13.528438 C17.3519194,13.5460827 17.3943878,13.5649877 17.4364357,13.5851531 C17.6735861,13.6969028 17.8901329,13.8384804 18.0869172,14.0014838 L18.1327495,14.0401341 L18.2214706,14.118695 C19.2604749,15.0706682 19.7154336,16.592733 19.8474641,17.1149318 C19.869329,17.2027352 19.8823638,17.2619709 19.8878301,17.2859173 L19.786915,19.0394637 L19.7902789,19.0386235 C19.7541176,19.6687911 19.7124902,20.3800402 19.6717037,21.0883486 C19.6674989,21.1660693 19.6620327,21.2391687 19.6578279,21.3173095 L19.6489978,21.3912492 C19.6464749,21.4399821 19.6401678,21.4891352 19.6368039,21.5403888 L19.625451,21.6281922 C19.6220871,21.6718838 19.61578,21.7130547 19.6119956,21.7567464 L19.5989608,21.8504313 C19.593915,21.8886615 19.5876078,21.9302525 19.5800392,21.9668022 L19.5657429,22.0634279 L19.5291612,22.2692827 L19.5081373,22.3755709 L19.4892157,22.4684156 L19.4656688,22.5726034 L19.4442244,22.6633475 L19.4198366,22.762914 L19.3946078,22.8540782 L19.3689586,22.9486034 L19.3142963,23.1275709 L19.2861242,23.2199955 L19.2575316,23.304438 L19.2247342,23.3930816 L19.1948802,23.4724827 L19.1616623,23.5611263 L19.1343312,23.6346458 L19.096488,23.7270704 L19.0708388,23.7787441 C19.0355185,23.8652872 18.9976754,23.9497296 18.9577298,24.0320715 L18.954366,24.0329117 L18.9051699,24.1307978 L18.8795207,24.1828916 L18.8303246,24.2727955 L18.8000501,24.3286704 L18.7529564,24.4126927 L18.7193181,24.4698279 L18.670122,24.5517497 L18.6339608,24.6063642 L18.5830828,24.6836648 L18.547342,24.7382793 L18.4977255,24.8126391 L18.4594619,24.8655732 L18.4073224,24.9374123 L18.3690588,24.9903464 L18.315658,25.0575642 L18.2752919,25.1083978 L18.2193682,25.1735151 L18.1798431,25.2209877 L18.1243399,25.2865251 L18.0822919,25.3318972 L18.0255272,25.3923933 L17.9834793,25.4381855 L17.9267146,25.4982615 L17.8834052,25.5390123 L17.8245381,25.5974078 L17.7812288,25.6381587 L17.6819956,25.7280626 L17.6214466,25.7814168 L17.5760349,25.8204872 L17.5213725,25.8666994 C17.3969107,25.9662659 17.2867451,26.0859978 17.1837277,26.2195933 C17.0369804,26.4128447 16.9154619,26.639705 16.8233769,26.8921922 C16.719098,27.1787084 16.6530828,27.4979933 16.6312179,27.839124 L16.6307974,27.8580291 L16.3919651,32.0373006 L16.4117277,32.042762 L17.1858301,32.2973497 C17.7459085,32.4817788 18.3047255,32.5363933 18.8404161,32.4700156 L18.9156819,32.4603531 C19.3895621,32.3918749 19.8419978,32.2234101 20.2637386,31.9621006 C20.3402658,31.915048 20.4146906,31.865895 20.4870131,31.8150615 C21.1017538,31.3693229 21.4898562,30.5307799 21.5466209,29.5292335 L21.8279216,24.635352 C21.8527298,24.1858324 21.8157277,23.7262302 21.7190174,23.2775508 C21.6239891,22.8229899 21.4658889,22.3801922 21.2560697,21.9747844 C20.8402157,21.1711106 20.6417495,20.2266994 20.6934684,19.337743 L20.6947298,19.3348022 L20.8254989,17.0271285 L20.874695,16.1785028 C21.0744227,12.6798123 19.5993813,9.15381453 17.3523399,7.22844246" id="Fill-122" fill="#304FFE" mask="url(#mask-6)"></path>
                    <path d="M13.6533834,36.4686391 L13.6340414,36.4526749 L13.5945163,36.4241073 L13.4893965,36.3699128 L13.4729978,36.3640313 C13.2476209,36.2892514 13.0457908,36.4178056 12.9570697,36.6610503 C12.9326819,36.7291084 12.9167037,36.8064089 12.911658,36.8904313 C12.8969412,37.1403978 12.9831394,37.3912045 13.124,37.5626101 L13.2118802,37.6533542 C13.2678039,37.7008268 13.3287734,37.7373765 13.3939477,37.7588022 L13.4103464,37.7651039 C13.6289956,37.8247598 13.8245185,37.6962056 13.9107168,37.457162 C13.9346841,37.3903642 13.9502418,37.3147441 13.9552876,37.2319821 C13.9704248,36.9341229 13.8447015,36.6324827 13.6533834,36.4686391" id="Fill-123" fill="#BA6499" mask="url(#mask-6)"></path>
                    <path d="M12.1093834,25.4041564 L12.1211569,25.4167598 L12.1194749,25.4150793 L12.1110654,25.4058369 L12.1093834,25.4041564 Z M12.1594205,25.4570905 L12.1880131,25.4864983 L12.1842288,25.4827173 L12.1606819,25.4583508 L12.1594205,25.4570905 Z M12.2124009,25.511705 C12.2531874,25.5541363 12.2939739,25.5953073 12.3347603,25.635638 L12.3339194,25.6343777 C12.2935534,25.5948872 12.2536078,25.5541363 12.2132418,25.5129654 L12.2124009,25.511705 Z M12.3368627,25.6373184 C12.4680523,25.7675531 12.5979804,25.8885453 12.7253856,25.9994547 C12.6181634,25.9061899 12.5092593,25.8057832 12.3990937,25.6990749 L12.3990937,25.6986547 L12.3389651,25.6398391 L12.3368627,25.6373184 Z M12.8654052,26.1187665 L12.7750022,26.0423061 L12.8654052,26.1187665 L12.8654052,26.1187665 Z" id="Fill-124" fill="#ECBCBB" mask="url(#mask-6)"></path>
                    <polyline id="Fill-125" fill="#FCDECC" mask="url(#mask-6)" points="16.4116917 32.042762 16.3654749 32.135162 16.4116917 32.042762"></polyline>
                    <path d="M17.1921373,26.1137251 C16.0227843,26.9169788 14.7386405,27.0694793 14.0347582,26.8363173 L14.0339172,26.8392581 C13.8850675,26.790105 13.713512,26.7077631 13.5255577,26.594333 L13.4624858,26.5556827 L13.459122,26.5535821 C13.2741111,26.4367911 13.073963,26.2914324 12.8654052,26.1187665 L12.7750022,26.0423061 L12.7253856,25.9994547 C12.5979804,25.8885453 12.4680523,25.7675531 12.3368627,25.6373184 L12.3347603,25.635638 C12.2939739,25.5953073 12.2531874,25.5541363 12.2124009,25.511705 L12.1880131,25.4864983 L12.1594205,25.4570905 L12.1211569,25.4167598 L12.1093834,25.4041564 C11.9916492,25.2793832 11.873915,25.1474682 11.7561808,25.0084112 C12.0732222,26.1569966 12.7522963,27.8269408 14.1840283,29.053667 C14.3656754,29.2091084 14.5590959,29.3574078 14.7659717,29.4968849 L14.4871939,34.3504358 C15.2558301,33.7698413 15.8987429,33.0497698 16.3654749,32.1351866 L16.4117277,32.042762 L16.3919651,32.0373006 L16.6307974,27.8580291 L16.6312179,27.839124 C16.6530828,27.4979933 16.719098,27.1787084 16.8233769,26.8921922 C16.9154619,26.639705 17.0369804,26.4128447 17.1837277,26.2195933 L17.1921373,26.1137251" id="Fill-126" fill="#F7A47A" mask="url(#mask-6)"></path>
                    <path d="M17.1921373,26.1137251 C16.0227843,26.9169788 14.7386405,27.0694793 14.0347582,26.8363173 C14.7386405,27.0694793 16.0227843,26.9169788 17.1921373,26.1137251 Z M13.5255577,26.594333 L13.4624858,26.5556827 L13.5255577,26.594333 Z M13.459122,26.5535821 C13.2472004,26.4204067 13.0163573,26.2490011 12.7754227,26.0427263 C12.6522222,25.9372782 12.5264989,25.8225877 12.3990937,25.6990749 C12.5092593,25.8057832 12.6181634,25.9061899 12.7253856,25.9994547 L12.7750022,26.0423061 L12.8654052,26.1187665 C13.073963,26.2914324 13.2741111,26.4367911 13.459122,26.5535821 Z M12.1110654,25.4058369 L12.1194749,25.4150793 L12.1110654,25.4058369 Z M12.1606819,25.4583508 L12.1842288,25.4827173 L12.1606819,25.4583508 Z M12.2132418,25.5129654 C12.2536078,25.5541363 12.2935534,25.5948872 12.3339194,25.6343777 C12.2935534,25.5948872 12.2536078,25.5541363 12.2132418,25.5129654 Z M12.3389651,25.6398391 L12.3990937,25.6986547 L12.3389651,25.6398391 L12.3389651,25.6398391 Z" id="Fill-127" fill="#F7A47A" mask="url(#mask-6)"></path>
                </g>
                <g id="Group-131" transform="translate(339.326797, 179.387709)">
                    <mask id="mask-8" fill="white">
                        <use xlink:href="#path-7"></use>
                    </mask>
                    <g id="Clip-130"></g>
                    <path d="M8.50293246,0.138636872 L8.50293246,34.4058905 C-4.22539651,28.9801475 -0.471777778,8.72193966 8.50293246,0.138636872" id="Fill-129" fill="#6B81FE" mask="url(#mask-8)"></path>
                </g>
            </g>
        </g>
    </g>
</svg>